<svg xmlns="http://www.w3.org/2000/svg" width="296" height="155.91148050663864" viewBox="0 0 296 155.91148050663864" class="editor-view__logo-preview" data-v-719f541d="" data-v-75053935=""><svg id="mark" viewBox="0 0 628 649" width="100" height="103.34394904458598" x="98" y="0" data-v-719f541d="" style="fill: rgb(0, 0, 0);"><rect x="0" y="0" width="100%" height="100%" fill="none" data-v-719f541d=""></rect><g data-v-719f541d="">
	<path xmlns="http://www.w3.org/2000/svg" d="M 304.250 6.662 C 303.349 7.026, 303 10.459, 303 18.948 C 303 29.267, 303.252 31.050, 305.026 33.306 C 306.140 34.723, 307.940 36.164, 309.026 36.508 C 310.921 37.110, 311 38.121, 311 61.639 C 311 82.465, 310.767 86.376, 309.446 87.697 C 306.961 90.182, 307.971 95.234, 311.266 96.805 C 314.673 98.430, 317.553 97.611, 319.642 94.424 C 321.101 92.196, 321.091 91.788, 319.513 89.380 C 318.569 87.939, 317.055 86.565, 316.148 86.328 C 314.684 85.945, 314.479 83.305, 314.308 62.698 L 314.116 39.500 318.419 35.500 C 322.337 31.858, 322.774 30.964, 323.307 25.500 C 323.629 22.200, 323.528 16.575, 323.083 13 L 322.274 6.500 322.137 14.685 C 321.962 25.171, 320.971 27.696, 316.256 29.669 C 312.758 31.134, 312.260 31.113, 309 29.371 L 305.500 27.500 305.215 17.854 L 304.930 8.207 313.215 7.243 L 321.500 6.279 313.500 6.218 C 309.100 6.185, 304.938 6.385, 304.250 6.662 M 392.441 37.468 C 390.864 38.661, 386.043 38.942, 366.710 38.968 C 339.942 39.004, 338.421 39.339, 332.030 46.618 C 325.566 53.981, 325.484 54.491, 325.766 85.806 L 326.021 114.112 319.444 120.592 L 312.867 127.073 308.137 123.600 C 305.535 121.691, 302.879 119.087, 302.235 117.814 C 301.444 116.252, 300.965 106.233, 300.760 87 C 300.423 55.264, 300.314 54.675, 293.415 47.038 C 286.356 39.225, 285.356 39, 257.599 39 C 242.357 39, 232.885 38.623, 232.500 38 C 231.641 36.610, 226.654 36.746, 225.200 38.200 C 221.567 41.833, 226.273 47.530, 230.874 45.068 C 232.043 44.442, 233 43.495, 233 42.965 C 233 41.600, 276.439 41.722, 281.500 43.101 C 286.487 44.460, 294.531 52.652, 295.972 57.840 C 297.383 62.917, 297.343 112, 295.929 112 C 295.339 112, 295.523 112.666, 296.337 113.480 C 298.348 115.491, 299.407 122.371, 298.085 124.840 C 297.500 125.935, 287.228 135.148, 275.260 145.315 C 263.292 155.481, 247.127 169.244, 239.337 175.900 C 231.548 182.555, 224.702 188, 224.124 188 C 223.546 188, 220.809 185.280, 218.043 181.955 L 213.012 175.911 214.756 173.216 C 215.715 171.734, 217.930 168.383, 219.678 165.768 C 221.425 163.153, 223.390 158.439, 224.043 155.291 C 224.911 151.114, 226.118 148.682, 228.516 146.284 C 231.983 142.817, 231.886 141.990, 228.306 144.498 C 226.223 145.957, 224.333 150.253, 222.108 158.589 C 220.768 163.608, 215.773 170.691, 212.531 172.168 C 210.311 173.179, 209.286 172.476, 199.091 162.950 C 184.959 149.745, 183.980 149.150, 175.990 148.919 C 172.420 148.816, 164.705 148.520, 158.845 148.262 L 148.189 147.794 150.293 144.228 C 152.107 141.154, 152.491 138.375, 153.081 124.080 C 153.830 105.934, 154.631 102.767, 160.030 96.618 C 165.961 89.863, 169.619 88.655, 186 88.043 C 195.562 87.685, 201.324 87.031, 202.919 86.124 C 204.250 85.368, 210.331 79.922, 216.433 74.022 C 222.535 68.123, 228.961 62.554, 230.714 61.648 C 233.344 60.288, 237.201 60, 252.776 60 L 271.651 60 274.076 62.578 C 276.399 65.048, 276.513 65.817, 276.819 81.078 C 277.086 94.408, 277.381 97, 278.635 97 C 279.918 97, 280.087 94.561, 279.816 79.916 L 279.500 62.831 276.354 60.022 C 273.374 57.362, 272.529 57.174, 260.396 56.474 C 243.676 55.510, 233.214 56.340, 227.896 59.053 C 225.611 60.219, 219.990 64.925, 215.404 69.511 L 207.065 77.849 187.283 78.175 C 167.566 78.499, 167.484 78.510, 162.620 81.369 C 152.373 87.391, 143.876 99.372, 144.125 107.446 C 144.249 111.474, 144.254 111.467, 144.990 106.461 C 146.015 99.486, 148.316 95.498, 155.402 88.416 C 164.133 79.692, 167.108 78.880, 189.081 79.226 L 206.500 79.500 202.500 82 C 198.872 84.267, 197.198 84.549, 184.500 85.029 C 168.338 85.641, 165.255 86.745, 158.129 94.476 C 151.564 101.598, 150.754 104.369, 150.083 122 C 149.588 135.020, 149.160 138.140, 147.408 141.500 C 144.783 146.534, 138.580 150.978, 133.166 151.705 L 129 152.263 129 146.739 C 129 142.750, 128.583 141.054, 127.500 140.638 C 124.622 139.534, 126.051 136.717, 133.338 129.135 C 141.495 120.649, 144.019 117.297, 143.961 115.027 C 143.939 114.187, 143.332 114.850, 142.611 116.500 C 141.890 118.150, 137.027 124, 131.805 129.500 C 126.583 135, 122.077 140.175, 121.790 141 C 121.089 143.022, 122.724 146, 124.535 146 C 125.577 146, 126 147.154, 126 150 C 126 153.134, 125.621 154.005, 124.250 154.023 C 120.917 154.068, 112.564 159.519, 109.351 163.747 C 105.100 169.341, 104.225 175.128, 106.526 182.444 C 107.483 185.487, 108.881 188.487, 109.633 189.110 C 110.699 189.995, 111 194.329, 111 208.794 L 111 227.343 106.622 231.538 C 98.789 239.043, 98.357 247.594, 105.493 253.859 C 114.148 261.459, 125.632 257.273, 128.902 245.327 C 129.419 243.438, 130.010 243.990, 133.242 249.376 C 139.624 260.007, 139.295 269.791, 132.281 277.984 C 126.178 285.115, 126.860 285, 90.698 285 C 58.731 285, 58.250 284.970, 54.898 282.742 C 53.029 281.500, 50.488 278.480, 49.250 276.030 C 47.077 271.729, 47 270.620, 47 243.775 C 47 223.503, 47.333 215.439, 48.230 214.003 C 49.231 212.401, 49.184 211.767, 47.980 210.615 C 44.852 207.622, 39.896 212.496, 42.956 215.556 C 43.508 216.108, 44.037 229.031, 44.206 246.082 L 44.500 275.651 47.184 279.704 C 48.871 282.252, 51.471 284.478, 54.184 285.697 C 58.261 287.529, 60.303 287.605, 91.088 287.068 L 123.675 286.500 127.758 283.669 C 134.613 278.916, 139 270.626, 139 262.423 C 139 259.403, 137.921 256.140, 135.331 251.323 C 130.473 242.290, 129.932 237.517, 129.362 198.681 L 128.895 166.862 151.198 167.181 L 173.500 167.500 178.500 170.878 C 183.860 174.499, 209.263 199.788, 208.786 201.028 C 208.629 201.437, 201.705 208.911, 193.401 217.636 C 173.093 238.972, 161.535 252.125, 157.366 258.643 C 150.574 269.260, 139.087 292.623, 137.085 299.892 C 135.965 303.958, 134.925 307.351, 134.774 307.432 C 134.623 307.514, 129.887 307.407, 124.250 307.196 C 116.826 306.918, 114 306.462, 114 305.541 C 114 302.943, 109.853 299.063, 106.380 298.412 C 101.925 297.576, 98.398 299.145, 96.227 302.927 L 94.546 305.855 74.683 306.178 L 54.820 306.500 50.112 311.870 L 45.405 317.240 37.877 317.370 C 30.729 317.493, 30.163 317.336, 26.640 314.250 C 19.773 308.234, 9.935 310.370, 5.874 318.761 C 3.163 324.361, 3.984 329.184, 8.400 333.600 C 12.288 337.488, 17.669 338.794, 22.151 336.938 C 25.615 335.503, 31 327.886, 31 324.422 C 31 322.422, 31.663 322.174, 38.750 321.523 L 46.500 320.810 51.749 315.155 L 56.997 309.500 75.535 309.500 C 90.932 309.500, 94.230 309.754, 95.005 311 C 95.801 312.280, 94.551 312.584, 86.481 313.072 C 76.682 313.664, 75.308 314.071, 76.514 316.022 C 76.987 316.789, 80.808 317.146, 87.864 317.085 C 93.714 317.035, 100.525 317.012, 103 317.036 C 105.475 317.059, 114.502 316.718, 123.061 316.278 C 141.091 315.351, 140.838 315.457, 151.500 304.446 C 156.514 299.268, 159.609 296.913, 162.410 296.145 C 166.049 295.147, 166.552 295.278, 169.694 298.037 C 171.551 299.666, 173.534 301, 174.101 301 C 178.443 301, 181.564 295.130, 180.674 288.637 C 180.121 284.607, 180.540 283.588, 187.137 272.920 C 199.484 252.952, 207.068 242.741, 216.415 233.500 C 226.635 223.396, 232.690 219.037, 240.895 215.876 C 245.868 213.961, 249.039 213.664, 269 213.244 C 290.532 212.791, 296.889 213.313, 300.832 215.859 C 301.863 216.525, 302.261 222.437, 302.597 242.109 C 302.835 256.074, 303.222 269.588, 303.455 272.141 C 303.831 276.244, 303.669 276.726, 302.057 276.305 C 299.184 275.553, 294.362 278.618, 291.129 283.251 C 289.499 285.588, 284.761 290.855, 280.602 294.956 L 273.039 302.411 270.269 299.882 C 268.746 298.491, 265.734 295.742, 263.576 293.774 L 259.652 290.194 268.076 281.178 C 279.312 269.153, 280.298 268.474, 290.039 266.050 C 299.323 263.739, 302.372 262, 297.140 262 C 294.588 262, 292.700 260.884, 288.440 256.855 C 285.448 254.025, 283 252.173, 283 252.739 C 283 253.862, 289.062 259.552, 292.964 262.092 C 295.383 263.667, 295.329 263.704, 287.955 265.485 C 280.556 267.273, 280.418 267.367, 269.485 278.106 L 258.470 288.926 248.985 279.888 C 243.768 274.916, 237.250 269.004, 234.500 266.750 C 231.750 264.495, 235.688 268.616, 243.250 275.908 C 250.813 283.200, 257 289.478, 257 289.860 C 257 290.242, 255.207 292.941, 253.015 295.858 C 248.664 301.648, 246.463 307.782, 245.416 317.038 L 244.738 323.029 241.119 323.032 C 239.129 323.034, 234.463 323.291, 230.750 323.603 C 224.896 324.095, 224 323.950, 224 322.508 C 224 319.679, 218.485 315, 215.150 315 C 212.076 315, 208 318.782, 208 321.635 C 208 323.340, 194.981 323.581, 193.307 321.907 C 192.517 321.117, 191.631 321.127, 190.107 321.943 C 187.456 323.361, 187.429 325.174, 190.024 327.521 C 191.575 328.925, 192.322 329.078, 193.224 328.176 C 194.976 326.424, 207.917 326.619, 208.603 328.408 C 210.125 332.373, 219.902 332.732, 222.288 328.910 C 223.241 327.385, 224.656 327, 229.307 327 C 234.995 327, 235.125 327.061, 234.816 329.600 C 234.578 331.562, 233.629 332.498, 230.946 333.415 C 226.340 334.989, 201 350.017, 201 351.175 C 201 351.662, 202.238 351.207, 203.750 350.165 C 210.019 345.844, 227.996 335.862, 231.121 334.965 C 235.627 333.673, 254.540 333.745, 259.321 335.072 C 263.271 336.169, 271 342.343, 271 344.401 C 271 345.043, 269.622 346.383, 267.938 347.377 C 264.271 349.544, 260.963 348.958, 256.139 345.287 C 254.221 343.827, 250.937 342.522, 248.488 342.246 C 244.851 341.836, 244.023 342.088, 243.053 343.902 C 241.047 347.650, 243.925 349.313, 248.006 346.764 C 249.641 345.743, 250.465 345.840, 252.743 347.324 C 254.259 348.311, 257.472 350.040, 259.881 351.165 L 264.263 353.210 250.895 366.605 C 243.543 373.972, 237.918 380, 238.394 380 C 238.871 380, 244.939 374.461, 251.880 367.690 C 262.986 356.857, 269.791 351, 271.270 351 C 271.523 351, 274.564 354.488, 278.028 358.750 C 281.491 363.012, 287.278 369.318, 290.889 372.763 L 297.453 379.027 291.271 385.209 C 285.232 391.248, 285.043 391.349, 283.095 389.586 C 281.998 388.593, 280.178 385.918, 279.051 383.641 C 277.610 380.730, 277.001 380.126, 277.001 381.606 C 277 382.765, 278.549 385.741, 280.442 388.220 L 283.883 392.727 273.269 402.597 C 267.431 408.026, 260.915 413.728, 258.789 415.268 C 256.663 416.808, 255.193 418.502, 255.521 419.034 C 257.193 421.739, 260.912 419.298, 272.846 407.663 L 285.500 395.325 293.250 398.293 L 301 401.261 301 415.495 C 301 428.216, 300.787 430.001, 299 432.273 C 297.900 433.671, 297 435.552, 297 436.452 C 297 437.935, 294.359 438.060, 268.750 437.794 L 240.500 437.500 234 434.414 C 222.468 428.938, 205.736 411.182, 196.266 394.370 C 186.797 377.559, 184.252 371.771, 184.263 367.070 C 184.278 360.516, 179.338 357.143, 173.948 360.028 C 171.398 361.393, 167.209 359.215, 154.826 350.087 C 149.515 346.172, 143.510 342.275, 141.480 341.427 C 138.213 340.062, 137.839 339.548, 138.222 336.943 C 138.459 335.324, 138.282 334, 137.827 334 C 137.372 334, 137 335.350, 137 337 L 137 340 126 340 C 115.823 340, 115 339.856, 115 338.082 C 115 337.027, 114.727 335.452, 114.393 334.582 C 113.860 333.193, 115.261 333, 125.862 333 C 135.977 333, 137.847 332.766, 137.383 331.556 C 136.957 330.445, 133.909 329.985, 124.164 329.563 C 104.946 328.730, 102.499 328.694, 74.211 328.823 C 42.682 328.967, 42.893 328.910, 37.006 338.989 C 34.844 342.692, 31.933 346.469, 30.537 347.384 L 28 349.046 28 366.464 C 28 376.997, 27.605 384.126, 27 384.500 C 26.450 384.840, 26 386.411, 26 387.992 C 26 391.938, 29.417 393.040, 32.368 390.045 L 34.500 387.882 31.750 385.489 L 29 383.096 29 367.603 L 29 352.109 31.744 350.794 C 33.253 350.071, 36.638 346.334, 39.267 342.490 C 41.896 338.645, 44.797 334.938, 45.714 334.250 C 46.947 333.326, 54.060 333, 72.990 333 L 98.598 333 98.193 336.472 L 97.788 339.943 84.644 340.222 C 73.751 340.452, 71.500 340.757, 71.500 342 C 71.500 343.257, 73.731 343.512, 85.275 343.575 C 94.400 343.625, 99.446 344.046, 100.225 344.825 C 101.780 346.380, 109.167 346.330, 111.322 344.750 C 112.521 343.870, 116.558 343.591, 124.951 343.808 C 136.312 344.101, 136.896 344.219, 137.302 346.308 C 137.726 348.491, 137.728 348.491, 137.864 346.230 L 138 343.959 141.750 345.944 C 143.813 347.035, 149.100 350.638, 153.500 353.949 C 157.900 357.261, 163.630 360.990, 166.232 362.235 C 170.313 364.188, 170.966 364.913, 170.978 367.500 C 170.985 369.153, 168.266 376.111, 164.921 383 C 159.161 394.860, 158.772 395.398, 157.310 393.500 C 154.170 389.425, 142.009 363.266, 140.108 356.500 C 139.027 352.650, 138.110 350.321, 138.071 351.324 C 137.942 354.626, 143.045 368.317, 148.406 379.056 C 156.435 395.139, 163.437 404.992, 179.281 422.500 C 197.235 442.339, 204.170 449.130, 215 457.473 C 219.675 461.075, 229.350 468.520, 236.500 474.017 C 243.650 479.514, 253.550 487.157, 258.500 491 C 263.450 494.843, 273.383 502.474, 280.572 507.956 C 288.457 513.969, 294.335 519.229, 295.385 521.212 C 296.770 523.829, 297.061 526.468, 296.813 534.141 L 296.500 543.783 288.215 537.548 C 283.659 534.120, 274.521 526.694, 267.909 521.046 C 261.298 515.399, 255.688 510.978, 255.444 511.222 C 255.200 511.466, 256.913 513.184, 259.250 515.039 C 261.588 516.894, 267.775 522.074, 273 526.551 C 278.225 531.027, 285.762 537.045, 289.750 539.925 L 297 545.160 297 567.112 C 297 591.268, 296.700 592.855, 290.891 599.472 C 285.475 605.640, 284.021 605.923, 257.178 606.035 C 235.818 606.123, 232.836 605.938, 230.452 604.377 C 228.042 602.797, 227.503 602.769, 225.142 604.094 C 221.879 605.925, 221.286 608.554, 223.567 611.074 C 225.752 613.488, 229.193 613.549, 231.310 611.210 C 232.770 609.597, 235.417 609.391, 258.180 609.121 C 286.557 608.784, 287.987 608.470, 293.929 601.279 C 301.211 592.468, 301.133 592.985, 300.800 555.285 C 300.530 524.741, 300.324 521.139, 298.712 518.681 C 296.676 515.577, 293.206 512.737, 262 488.637 C 242.173 473.325, 227.129 461, 228.266 461 C 228.476 461, 232.214 462.055, 236.574 463.345 C 240.933 464.634, 253.950 468.035, 265.500 470.902 C 277.051 473.769, 287.560 476.914, 288.854 477.890 C 291.339 479.764, 292.878 485.267, 292.956 492.554 C 293.037 500.008, 300.926 509.422, 308.365 510.939 L 311.500 511.579 311.783 522.861 C 311.992 531.177, 312.387 534.039, 313.283 533.742 C 314.096 533.473, 314.666 529.737, 315 522.480 L 315.500 511.621 319 510.736 C 320.925 510.249, 324.241 508.196, 326.369 506.175 C 331.925 500.898, 333.952 495.898, 333.978 487.405 C 334.010 476.978, 333.768 477.124, 361.272 470.923 C 371.297 468.663, 383.452 465.549, 388.283 464.002 L 397.065 461.191 392.783 464.952 C 383.103 473.453, 370.442 483.474, 352 497.233 C 330.429 513.326, 327.432 516.069, 325.941 521.075 C 325.275 523.312, 325.160 536.062, 325.608 557.824 L 326.296 591.148 330.040 596.941 C 332.099 600.127, 335.484 604.031, 337.561 605.617 L 341.338 608.500 365.919 609.075 C 383.708 609.491, 391.405 610.038, 393.775 611.054 C 397.786 612.773, 400.352 611.535, 400.816 607.658 C 401.061 605.607, 400.534 604.745, 398.461 603.800 C 396.236 602.786, 395.294 602.868, 392.814 604.292 C 390.250 605.764, 386.730 606, 367.369 606 C 342.016 606, 341.494 605.880, 335.601 598.688 C 328.993 590.625, 328.972 590.484, 329.029 554.864 C 329.064 533.114, 329.444 522.036, 330.203 520.609 C 332.073 517.094, 337.823 512.427, 365.500 491.959 C 375.307 484.706, 394.731 469.234, 408.404 457.782 C 412.201 454.602, 415.844 452, 416.499 452 C 417.154 452, 418.547 452.955, 419.595 454.123 C 420.643 455.291, 429.652 463.155, 439.616 471.598 C 455.493 485.051, 457.674 487.253, 457.263 489.406 C 456.839 491.622, 456.155 491.931, 450.302 492.558 C 439.399 493.726, 433.246 492.513, 428.022 488.166 C 422.082 483.224, 416.981 479.686, 416.496 480.171 C 416.136 480.530, 419.063 482.978, 432.295 493.385 L 437.234 497.269 446.367 496.457 C 451.390 496.010, 456.850 495.728, 458.500 495.831 C 460.150 495.933, 465.204 496.272, 469.732 496.584 L 477.964 497.151 475.759 501.326 C 473.779 505.074, 473.500 507.438, 473.024 524.500 C 472.642 538.167, 472.098 544.202, 471.084 546 C 468.117 551.263, 465.407 554.172, 460.590 557.263 C 455.950 560.240, 454.874 560.491, 445.204 560.849 C 437.943 561.118, 434.075 560.843, 432.383 559.937 C 430.521 558.941, 429.686 558.914, 428.780 559.820 C 427.966 560.634, 421.847 561.031, 409.050 561.100 C 383.772 561.236, 381.275 562.440, 405.619 562.754 C 417.920 562.913, 425.795 563.415, 426.612 564.093 C 427.397 564.744, 429.231 564.888, 431.209 564.454 C 433.019 564.056, 439.450 563.678, 445.500 563.615 C 457.999 563.484, 461.652 562.150, 468.165 555.335 C 475.656 547.495, 476.440 544.710, 477 523.950 C 477.550 503.533, 478.099 501.551, 484.063 498.468 C 486.326 497.297, 488.311 497.086, 491.803 497.645 C 494.387 498.059, 496.837 498.308, 497.250 498.198 C 498.806 497.787, 497.908 499.737, 495.500 502 C 493.946 503.460, 493 505.448, 493 507.255 C 493 509.717, 493.611 510.401, 497 511.732 C 499.360 512.659, 500.994 513.959, 500.985 514.902 C 500.977 515.781, 496.998 520.598, 492.143 525.606 C 483.831 534.180, 483.215 535.115, 481.594 541.606 C 478.733 553.061, 472.573 561.196, 463 566.165 C 458.759 568.366, 457.408 568.503, 439.500 568.548 C 417.318 568.605, 417.253 568.626, 408.356 578.327 C 398.015 589.604, 398.397 589.454, 379.167 589.802 C 364.670 590.064, 362.054 589.869, 359.071 588.302 C 352.590 584.896, 351.559 582.335, 351 568.260 C 350.650 559.438, 350.125 555.536, 349.250 555.247 C 348.292 554.930, 348 557.967, 348 568.269 C 348 580.588, 348.189 581.985, 350.274 585.078 C 351.524 586.934, 354.066 589.476, 355.922 590.726 C 359.119 592.881, 360.234 593, 377.180 593 C 390.835 593, 395.915 592.644, 398.663 591.496 C 400.643 590.669, 406.141 585.981, 410.881 581.079 C 417.447 574.288, 420.453 571.908, 423.500 571.088 C 425.700 570.496, 434.323 570.009, 442.663 570.006 C 457.810 570, 457.832 569.997, 464.103 566.750 C 473.963 561.645, 479.596 553.714, 483.052 540.070 C 483.940 536.565, 486.037 533.711, 493.087 526.410 C 501.118 518.094, 502.490 516.178, 502.128 513.780 C 502.069 513.384, 502.864 512.608, 503.895 512.056 C 506.910 510.442, 507.460 506.114, 505.062 502.870 C 502.408 499.280, 502.457 498.005, 505.250 497.978 C 509.864 497.933, 516.007 494.226, 517.538 490.564 C 519.280 486.395, 519.548 468.978, 517.921 465.684 C 517.327 464.483, 514.826 461.687, 512.361 459.472 C 508.112 455.652, 507.940 455.290, 509.021 452.472 C 509.982 449.964, 512.583 436.134, 515.906 415.859 C 516.325 413.307, 518.092 409.067, 519.833 406.438 C 524.087 400.016, 524.109 395.333, 519.909 390.549 C 511.072 380.484, 495.457 386.769, 493.474 401.189 L 492.765 406.341 490.944 403.926 C 483.078 393.497, 487.729 371.043, 499.371 363.250 C 502.041 361.462, 505.638 359.933, 507.363 359.850 C 510.277 359.711, 510.310 359.671, 507.826 359.291 C 501.903 358.385, 492.693 365.919, 488.705 374.933 C 486.530 379.852, 485.353 390.737, 486.396 396.296 C 486.754 398.206, 488.379 401.734, 490.006 404.135 L 492.964 408.500 492.982 448.194 L 493 487.888 490.683 490.583 C 488.639 492.959, 487.468 493.335, 480.763 493.765 C 471.192 494.379, 466.298 493.515, 465.523 491.073 C 465.199 490.051, 463.487 488.616, 461.719 487.884 C 459.951 487.151, 455.128 483.603, 451.002 480 C 446.876 476.396, 439.334 469.938, 434.242 465.649 C 429.151 461.360, 423.344 456.304, 421.338 454.412 L 417.692 450.974 434.640 433.737 C 458.597 409.371, 463.231 403.590, 472.602 386.380 C 479.738 373.274, 484 364.284, 484 362.338 C 484 361.996, 481.147 367.293, 477.660 374.108 C 469.425 390.206, 465.644 396.981, 464.892 396.992 C 463.818 397.006, 453.998 370.083, 454.041 367.241 C 454.075 364.973, 454.894 364.115, 458.791 362.268 C 461.381 361.041, 466.425 357.756, 470 354.967 C 477.406 349.191, 485.040 344, 486.129 344 C 486.535 344, 487.055 345.238, 487.284 346.750 L 487.700 349.500 487.850 346.750 L 488 344 520.893 344 C 548.189 344, 553.878 343.761, 554.324 342.598 C 554.620 341.827, 554.593 340.927, 554.264 340.598 C 553.936 340.269, 547.104 340, 539.083 340 C 524.650 340, 524.499 339.977, 524.421 337.750 C 524.378 336.512, 524.153 334.825, 523.921 334 C 523.556 332.700, 527.305 332.432, 552 331.992 L 580.500 331.485 584.797 336.192 C 587.161 338.781, 591.514 342.083, 594.471 343.530 C 597.428 344.976, 600.054 346.697, 600.306 347.354 C 600.558 348.011, 600.825 356.718, 600.898 366.702 C 601.025 383.801, 600.921 384.890, 599.109 385.465 C 594.936 386.790, 596.052 392.429, 600.362 391.798 C 602.350 391.507, 602.394 390.956, 602.183 368.724 L 601.966 345.948 604.233 345.037 C 606.207 344.244, 606.011 344.119, 602.718 344.063 C 596.117 343.953, 592.934 342.018, 584.111 332.751 L 579.722 328.141 585.377 319.642 C 593.252 307.806, 599.881 304.206, 608.642 307.007 C 623.203 311.664, 625.496 330.227, 612.285 336.500 C 608.454 338.319, 608.069 338.840, 608.036 342.250 C 608.016 344.313, 608.450 346, 609 346 C 609.550 346, 610 344.693, 610 343.095 C 610 340.709, 610.805 339.718, 614.502 337.552 C 620.717 333.909, 623.356 328.594, 622.795 320.844 C 621.599 304.307, 601.224 297.153, 588.676 308.864 C 587.123 310.314, 584.242 314.200, 582.273 317.500 C 580.305 320.800, 577.554 324.738, 576.160 326.250 L 573.626 329 548.863 329 C 526.327 329, 524.009 328.843, 523.096 327.250 C 522.169 325.632, 521.971 325.670, 520.490 327.750 C 518.956 329.903, 518.272 330, 504.643 330 C 494.899 330, 490.021 330.379, 489.200 331.200 C 488.540 331.860, 488 334.062, 488 336.093 C 488 339.810, 486.827 341, 483.161 341 C 482.240 341, 477.439 344.205, 472.493 348.123 C 467.547 352.041, 461.135 356.350, 458.245 357.699 C 453.588 359.872, 452.579 360.016, 449.385 358.962 C 446.225 357.919, 445.457 358.016, 443.141 359.754 C 440.859 361.465, 440.500 362.466, 440.500 367.117 C 440.500 371.634, 439.457 374.752, 434.018 386.500 C 426.018 403.777, 420.796 411.675, 410.502 422.064 C 404.569 428.052, 400.581 431.087, 395.058 433.818 L 387.612 437.500 360.114 437.810 C 344.989 437.981, 331.566 437.857, 330.285 437.535 L 327.955 436.951 328.228 418.787 L 328.500 400.623 334 399.302 C 337.025 398.576, 340.343 397.497, 341.374 396.905 C 343.404 395.738, 343.659 395.941, 360.121 411.837 C 365.024 416.572, 368.382 419.072, 369.538 418.848 C 372.377 418.298, 372.260 416.588, 369.260 414.775 C 365.587 412.555, 345.578 394.072, 345.213 392.562 C 344.975 391.577, 356.859 378.125, 369.090 365.533 L 371.972 362.567 376.078 366.533 C 378.337 368.715, 381.515 372.412, 383.140 374.750 C 386.206 379.158, 387.980 379.934, 389.847 377.684 C 390.692 376.666, 389.027 374.618, 382.470 368.617 C 377.811 364.354, 374 360.462, 374 359.968 C 374 359.474, 375.350 356.941, 377 354.339 C 378.650 351.737, 380 348.459, 379.999 347.054 C 379.999 345.149, 379.244 346.094, 377.033 350.768 C 375.402 354.216, 373.334 357.318, 372.438 357.662 C 371.317 358.092, 369.089 356.567, 365.296 352.774 C 359.233 346.711, 359.057 345.462, 363.519 340.160 C 365.094 338.288, 365.708 336.598, 365.333 335.165 C 364.684 332.685, 363 332.233, 363 334.540 C 363 335.387, 362.074 337.895, 360.942 340.114 C 359.248 343.434, 358.629 343.937, 357.442 342.952 C 356.409 342.095, 356 339.519, 356 333.878 L 356 326 359.032 326 C 361.242 326, 362.310 326.610, 362.969 328.250 L 363.873 330.500 363.937 328.184 L 364 325.868 380.983 326.184 C 397.245 326.487, 398.032 326.595, 399.527 328.733 C 400.386 329.961, 403.207 331.580, 405.795 332.332 C 410.413 333.673, 410.505 333.780, 410.764 338.099 C 411.214 345.617, 411.824 346.869, 416.088 349.045 L 420.144 351.114 418.045 348.274 C 416.890 346.712, 415.673 343.761, 415.341 341.717 C 414.807 338.424, 414.976 338, 416.822 338 C 419.400 338, 424 335.975, 424 334.839 C 424 334.378, 425.992 334, 428.427 334 C 432.019 334, 433.246 333.503, 434.927 331.365 C 438.598 326.698, 437.186 321.877, 431.608 320.036 C 429.735 319.417, 427.031 319.205, 425.601 319.564 L 423 320.217 422.890 313.358 C 422.830 309.586, 422.862 301.764, 422.961 295.977 L 423.142 285.453 416.055 276.977 C 412.157 272.314, 408.722 267.375, 408.421 266 C 407.247 260.622, 405.062 257.583, 393 244.551 C 383.146 233.904, 379.946 231.040, 377.885 231.023 C 376.447 231.010, 374.153 230.122, 372.788 229.048 C 370.462 227.218, 370.157 227.199, 367.904 228.736 C 362.921 232.133, 347 247.304, 347 248.655 C 347 252.243, 350.172 250.609, 357.099 243.450 C 361.170 239.244, 365.742 234.913, 367.259 233.827 C 371.566 230.743, 375.757 232.735, 386.260 242.860 C 396.115 252.360, 397.773 254.627, 396.093 256.307 C 392.755 259.645, 397.986 269.618, 402.611 268.734 C 404.471 268.378, 406.207 269.832, 411.891 276.508 L 418.883 284.719 419.192 305.361 C 419.361 316.714, 419.163 326.002, 418.750 326.001 C 418.337 326.001, 418 325.135, 418 324.077 C 418 321.189, 413.349 316.236, 409.932 315.485 C 406.249 314.676, 402.297 316.969, 401.432 320.417 C 400.852 322.725, 400.409 322.832, 388.666 323.488 C 372.526 324.389, 365.576 323.946, 365.326 322 C 364.394 314.745, 363.531 312.487, 360.349 308.965 L 356.812 305.049 362.582 299 C 365.755 295.673, 368.797 293.099, 369.341 293.280 C 369.886 293.462, 372.731 297.590, 375.665 302.453 C 378.599 307.317, 381 310.889, 381 310.390 C 381 309.892, 378.760 305.662, 376.023 300.992 C 373.286 296.321, 371.036 292.016, 371.023 291.424 C 370.987 289.737, 375.733 285.717, 376.905 286.441 C 378.902 287.676, 382 285.048, 382 282.120 C 382 280.531, 382.916 278.482, 384.108 277.405 C 385.267 276.357, 387.155 274.150, 388.302 272.500 C 389.876 270.237, 389.123 270.667, 385.237 274.250 C 382.404 276.863, 379.628 279, 379.069 279 C 378.509 279, 377.409 280.238, 376.623 281.750 C 375.838 283.262, 373.864 285.480, 372.237 286.677 L 369.279 288.854 364.710 282.677 C 362.197 279.280, 357.948 274.219, 355.267 271.432 C 350.976 266.971, 349.398 266.076, 342.096 263.966 L 333.800 261.569 336.169 259.535 C 337.473 258.416, 339.836 256.481, 341.422 255.236 C 346.846 250.977, 343.494 252.141, 337.567 256.575 C 334.314 259.009, 330.605 261, 329.326 261 L 327 261 327 239.155 C 327 218.203, 327.086 217.232, 329.109 215.405 C 331.062 213.641, 333.004 213.502, 355.359 213.525 C 378.888 213.549, 379.684 213.617, 386.764 216.180 C 390.759 217.626, 396.270 220.248, 399.010 222.007 C 404.875 225.770, 415.570 236.973, 424.082 248.270 C 431.533 258.157, 445.652 285.748, 444.071 287.329 C 442.292 289.108, 442.827 294.534, 444.973 296.475 C 446.384 297.752, 447.822 298.086, 450.023 297.645 C 451.933 297.263, 452.869 297.403, 452.491 298.015 C 452.156 298.557, 450.896 299.052, 449.691 299.116 C 447.821 299.215, 447.774 299.302, 449.373 299.713 C 450.403 299.978, 452.580 299.208, 454.211 298.002 C 459.505 294.088, 467.423 297.601, 475.637 307.508 C 481.764 314.898, 483.240 315.373, 501.488 315.824 C 512.982 316.109, 518.034 316.611, 519.460 317.610 C 521.976 319.372, 526.768 319.338, 530 317.534 C 531.752 316.557, 534.340 316.309, 538.645 316.705 C 545.961 317.377, 550 316.550, 550 314.378 C 550 313.030, 548.736 312.847, 541.489 313.147 C 534.708 313.428, 533.082 313.229, 533.489 312.168 C 533.770 311.436, 533.999 310.536, 533.999 310.168 C 533.998 309.801, 541.085 309.643, 549.749 309.817 C 559.558 310.014, 566.956 309.704, 569.359 308.994 C 571.853 308.257, 575.324 305.722, 579.173 301.825 C 582.448 298.508, 584.986 295.653, 584.812 295.479 C 584.638 295.305, 583.322 294.868, 581.886 294.508 C 579.577 293.928, 578.968 294.379, 576.599 298.421 C 572.445 305.509, 570.774 306, 550.800 306 L 533.500 306 530.707 302.500 C 526.521 297.253, 521.496 297.983, 515.507 304.707 C 513.633 306.811, 512.638 306.970, 500.500 307.096 L 487.500 307.231 486.766 301.366 C 485.802 293.665, 482.603 285.244, 477.847 277.885 C 472.795 270.068, 469.453 263.397, 468.129 258.483 C 466.920 253.997, 455.089 240.332, 431.266 215.905 L 417.032 201.310 431.552 186.905 C 451.826 166.791, 450.143 167.577, 473.810 167.157 L 493.123 166.814 492.918 205.360 L 492.712 243.907 488.767 249.703 C 484.951 255.311, 484.833 255.732, 485.173 262.597 C 485.458 268.367, 486.083 270.594, 488.512 274.500 C 492.252 280.514, 497.607 284.892, 502.631 286.043 C 504.759 286.531, 520.603 286.969, 537.841 287.016 C 573.454 287.114, 573.877 287.033, 579.500 279.077 L 582.500 274.832 582.760 245.666 C 582.925 227.107, 583.415 215.730, 584.108 214.381 C 585.774 211.140, 584.860 208.500, 582.070 208.500 L 579.668 208.500 579.907 238.121 C 580.170 270.608, 579.765 273.920, 574.852 279.516 C 569.491 285.621, 565.439 286.205, 531.060 285.828 L 501.168 285.500 496.858 282.469 C 490.293 277.853, 486.633 271.192, 486.171 263.021 C 485.761 255.770, 486.994 252.096, 491.044 248.498 C 492.694 247.031, 493.412 246.842, 493.742 247.787 C 494.579 250.185, 499.224 255.064, 502.069 256.536 C 506.720 258.941, 513.339 258.427, 516.959 255.381 C 525.166 248.475, 524.964 238.231, 516.518 233.011 C 514.576 231.811, 513.240 230.421, 513.548 229.922 C 513.857 229.423, 513.390 224.849, 512.511 219.757 C 511.633 214.666, 510.645 206.417, 510.318 201.426 L 509.722 192.353 513.809 188.306 C 516.057 186.080, 518.201 183.048, 518.572 181.569 C 520.418 174.213, 516.105 163.651, 509.144 158.479 C 501.297 152.650, 501.682 153.383, 502.284 145.432 C 502.792 138.711, 502.658 138.027, 500.420 135.925 C 497.835 133.497, 495.875 133.940, 497.980 136.476 C 499.025 137.735, 498.963 138, 497.622 138 C 496.730 138, 496 138.450, 496 139 C 496 139.550, 495.325 140, 494.500 140 C 493.333 140, 493 141.333, 493 146 C 493 149.300, 492.757 152, 492.460 152 C 490.610 152, 483.830 147.586, 481.589 144.924 C 476.791 139.222, 476.278 137.196, 475.779 122 C 475.373 109.635, 474.980 106.868, 473.108 103.205 C 470.114 97.345, 464.582 91.426, 459.096 88.210 C 454.860 85.728, 453.460 85.494, 440.012 85.016 C 426.564 84.538, 425.243 84.317, 422 82 L 418.500 79.500 422.500 79.170 C 424.700 78.988, 433.250 78.997, 441.500 79.189 C 455.498 79.514, 456.844 79.718, 461.647 82.234 C 467.062 85.069, 475.307 92.489, 478.569 97.461 C 479.649 99.107, 480.763 103.070, 481.098 106.452 L 481.695 112.500 481.848 106.921 C 481.976 102.218, 481.517 100.613, 478.919 96.691 C 474.954 90.705, 467.243 83.791, 461.231 80.830 C 456.855 78.675, 455.038 78.476, 437 78.175 L 417.500 77.851 409 69.096 C 396.977 56.711, 396.507 56.543, 374 56.519 C 357.046 56.502, 355.275 56.667, 352.812 58.500 C 347.977 62.096, 347.500 64.108, 347.500 80.896 C 347.500 94.100, 347.731 96.500, 349 96.500 C 350.258 96.500, 350.544 93.974, 350.775 80.862 C 351.045 65.502, 351.096 65.176, 353.661 62.612 L 356.273 60 374.386 60.004 C 395.943 60.008, 394.629 59.483, 408.207 73.539 C 422.168 87.994, 420.958 87.405, 438 88.043 C 454.235 88.650, 457.237 89.620, 464.375 96.567 C 470.812 102.833, 471.952 106.568, 471.984 121.500 C 471.999 128.650, 472.474 136.167, 473.040 138.203 C 474.690 144.146, 481.134 151.429, 487.494 154.541 C 493.065 157.267, 493.099 157.310, 492.801 161.392 L 492.500 165.500 473.500 166 C 457.583 166.419, 453.885 166.805, 450.713 168.381 C 448.630 169.416, 440.224 176.954, 432.032 185.131 C 423.841 193.309, 416.630 200, 416.007 200 C 414.870 200, 400.113 187.502, 370.566 161.514 C 361.803 153.806, 349.633 143.176, 343.523 137.890 C 337.413 132.605, 331.646 127.108, 330.707 125.675 C 326.746 119.631, 330.555 113, 337.987 113 C 344.886 113, 348.069 115.189, 360.278 128.325 C 366.725 135.262, 372 141.160, 372 141.432 C 372 141.705, 370.087 143.776, 367.750 146.035 C 365.413 148.294, 364.405 149.702, 365.511 149.163 C 366.617 148.625, 368.375 147.244, 369.416 146.093 C 371.103 144.229, 372.429 144, 381.533 144 C 392.485 144, 393.043 144.232, 395.740 149.896 L 396.980 152.500 396.412 150 C 396.099 148.625, 394.522 146.262, 392.906 144.750 C 390.332 142.340, 389.174 142, 383.543 142 C 380.009 142, 376.840 141.550, 376.500 141 C 376.160 140.450, 375.025 140, 373.977 140 C 372.802 140, 367.970 135.379, 361.353 127.927 C 355.225 121.025, 349.015 115.028, 346.856 113.927 C 342.797 111.856, 332.588 111.240, 331.500 113 C 329.302 116.557, 328.933 112.082, 329.207 85.175 L 329.500 56.349 332.300 52.121 C 333.839 49.796, 337.190 46.567, 339.745 44.947 L 344.392 42 367.041 42 C 388.420 42, 389.792 42.112, 391.500 44 C 392.495 45.100, 394.140 46, 395.155 46 C 397.115 46, 401 42.677, 401 41 C 401 39.552, 397.228 36, 395.691 36 C 394.971 36, 393.509 36.661, 392.441 37.468 M 394 41 C 394 41.550, 394.450 42, 395 42 C 395.550 42, 396 41.550, 396 41 C 396 40.450, 395.550 40, 395 40 C 394.450 40, 394 40.450, 394 41 M 233.458 92.250 C 229.004 96.174, 228.092 96.545, 221.567 97.088 L 214.500 97.677 221.595 97.838 C 227.711 97.978, 228.953 97.704, 230.595 95.854 C 231.643 94.673, 234.255 92.423, 236.400 90.854 C 238.545 89.284, 239.846 88, 239.291 88 C 238.736 88, 236.111 89.912, 233.458 92.250 M 312.534 89.352 C 311.351 90.216, 310.915 91.336, 311.334 92.429 C 312.176 94.623, 315.365 94.058, 315.832 91.632 C 316.356 88.913, 314.699 87.768, 312.534 89.352 M 392 92.994 C 397.047 97.572, 398.785 98, 412.325 98 C 423.436 98, 424.630 98.178, 425.768 100 C 427.242 102.360, 430.251 102.608, 431.989 100.513 C 434.674 97.278, 430.583 93.815, 426.598 95.948 C 425.044 96.779, 420.092 97.057, 410.871 96.831 L 397.411 96.500 392.956 93.160 L 388.500 89.819 392 92.994 M 192.053 96.436 C 190.299 98.549, 192.437 102, 195.500 102 C 198.563 102, 200.701 98.549, 198.947 96.436 C 198.291 95.646, 196.740 95, 195.500 95 C 194.260 95, 192.709 95.646, 192.053 96.436 M 284.227 112.500 C 282.427 113.283, 276.352 118.349, 270.727 123.760 C 265.102 129.170, 258.299 135.487, 255.609 137.798 L 250.718 142 241.693 142 C 236.728 142, 232.854 142.180, 233.083 142.400 C 233.313 142.620, 237.962 142.958, 243.416 143.150 C 250.844 143.412, 253.440 143.178, 253.760 142.218 C 253.996 141.512, 256.710 138.587, 259.792 135.718 C 262.874 132.848, 268.948 127.125, 273.291 123 C 282.102 114.629, 284.255 113.244, 290.307 112.048 L 294.500 111.219 291 111.149 C 289.075 111.110, 286.027 111.718, 284.227 112.500 M 482.006 114.160 C 481.999 116.130, 488.199 124.077, 493.584 129 C 498.365 133.371, 496.191 130.157, 489.863 123.500 C 487.249 120.750, 484.413 117.150, 483.561 115.500 C 482.650 113.735, 482.010 113.184, 482.006 114.160 M 101.074 122.862 C 100.373 124.172, 100.456 125.241, 101.355 126.471 C 103.110 128.870, 106.420 128.045, 106.837 125.103 C 107.389 121.216, 102.891 119.467, 101.074 122.862 M 517.516 122.365 C 515.707 123.688, 516.129 128, 518.067 128 C 518.582 128, 519 132.459, 519 137.939 L 519 147.879 535.362 165.189 C 544.361 174.710, 553.794 184.371, 556.325 186.659 C 560.887 190.781, 560.922 190.861, 560.329 195.873 C 559.758 200.692, 559.901 201.101, 563.365 204.565 C 566.321 207.521, 567 208.940, 567 212.159 C 567 214.544, 567.398 215.872, 568 215.500 C 568.550 215.160, 569 213.424, 569 211.641 C 569 209.858, 569.540 207.860, 570.200 207.200 C 571.133 206.267, 570.941 206, 569.335 206 C 568.199 206, 566.084 205.067, 564.635 203.927 C 562.509 202.255, 562 201.014, 562 197.500 C 562 193.986, 562.509 192.745, 564.635 191.073 C 568.415 188.099, 572.561 188.407, 576.077 191.923 C 580.467 196.313, 579.722 201.380, 574.225 204.518 C 571.563 206.037, 571.558 206.058, 574 205.418 C 578.203 204.317, 580 202.026, 580 197.768 C 580 189.961, 570.600 185.090, 564.194 189.576 C 561.992 191.119, 561.578 190.782, 544.877 173.826 C 535.491 164.297, 526.053 154.322, 523.905 151.660 C 520.014 146.838, 520 146.788, 520 137.839 C 520 131.188, 520.389 128.468, 521.500 127.357 C 523.528 125.329, 523.388 123.278, 521.138 122.074 C 519.826 121.372, 518.757 121.457, 517.516 122.365 M 302 134.513 L 302 146.940 305.677 144.445 C 307.699 143.072, 310.399 141.687, 311.677 141.366 C 313.772 140.840, 314 140.217, 314 135.008 L 314 129.234 308 125.660 L 302 122.085 302 134.513 M 321.053 123.947 C 317.193 127.807, 315.862 142, 319.360 142 C 320.011 142, 322.193 143.359, 324.209 145.020 C 329.439 149.332, 332.784 156.882, 333.597 166.217 C 334.398 175.403, 330.604 173.528, 365.500 181.983 C 379.250 185.314, 391.400 188.292, 392.500 188.600 C 395.837 189.535, 375.427 170.732, 340.231 140.446 C 332.241 133.571, 327.908 129.066, 326.525 126.196 C 324.229 121.432, 323.760 121.240, 321.053 123.947 M 381.037 129.931 C 380.253 131.395, 380.395 132.252, 381.623 133.481 C 384.701 136.558, 389.819 132.897, 387.070 129.584 C 385.274 127.421, 382.289 127.592, 381.037 129.931 M 292.938 135.277 C 290.979 137.050, 282.654 144.202, 274.438 151.172 C 266.222 158.141, 258.600 164.670, 257.500 165.679 C 256.400 166.689, 250.766 171.616, 244.981 176.627 C 235.147 185.145, 231.161 189, 232.188 189 C 233.353 189, 292.235 173.973, 293.054 173.467 C 293.574 173.145, 294 170.249, 294 167.030 C 294 163.812, 294.894 158.326, 295.987 154.839 C 297.961 148.542, 298.878 131.968, 297.250 132.027 C 296.837 132.042, 294.897 133.504, 292.938 135.277 M 104.310 139.500 C 104.315 142.800, 104.502 144.029, 104.725 142.232 C 104.947 140.435, 104.943 137.735, 104.715 136.232 C 104.486 134.729, 104.304 136.200, 104.310 139.500 M 496.198 148.171 C 496.631 155.578, 499 155.927, 499 148.583 C 499 144.203, 498.665 143, 497.448 143 C 496.206 143, 495.956 144.034, 496.198 148.171 M 457.341 146.831 C 456.328 147.899, 453.664 149.075, 451.421 149.445 C 445.637 150.399, 432.527 160.556, 421.500 172.627 C 404.712 191.004, 404.609 191.540, 421.074 174.845 C 440.797 154.845, 446.499 150.759, 455.323 150.297 C 458.720 150.119, 463.975 149.593, 467 149.128 C 472.498 148.282, 472.499 148.282, 468.215 148.141 C 465.858 148.063, 462.861 147.300, 461.556 146.444 C 459.365 145.009, 459.040 145.039, 457.341 146.831 M 308.314 147.950 C 306.561 149.019, 304.649 150.787, 304.064 151.881 C 301.045 157.521, 304.931 165, 311.976 167.111 C 323.798 170.653, 331.112 154.308, 320.580 147.885 C 316.629 145.477, 312.333 145.499, 308.314 147.950 M 102.477 149.175 C 102.089 150.454, 92.774 160.563, 81.777 171.641 L 61.782 191.782 63.891 193.891 C 68.439 198.439, 64.419 206.493, 57.696 206.303 C 53.276 206.177, 52.138 205.494, 50.893 202.219 C 49.091 197.478, 52.307 193.016, 58.500 191.668 C 59.690 191.408, 59.165 191.185, 57.205 191.116 C 49.776 190.855, 46.097 200.405, 51.646 205.548 C 59.361 212.697, 70.334 203.412, 65.836 193.540 C 64.719 191.088, 65.392 190.257, 82.683 172.739 C 98.806 156.406, 105.108 148.774, 103.665 147.332 C 103.400 147.066, 102.865 147.896, 102.477 149.175 M 474.269 149.693 C 475.242 149.947, 476.592 149.930, 477.269 149.656 C 477.946 149.382, 477.150 149.175, 475.500 149.195 C 473.850 149.215, 473.296 149.439, 474.269 149.693 M 141.500 152.564 C 139.300 153.871, 135.565 155.233, 133.200 155.591 L 128.900 156.242 129.200 160.871 L 129.500 165.500 151.632 166 L 173.764 166.500 179.132 170.200 C 182.084 172.235, 190.285 179.747, 197.356 186.893 L 210.213 199.887 216.565 195.194 C 220.059 192.612, 222.936 190.130, 222.959 189.677 C 223.045 187.952, 211.609 176.059, 208.985 175.145 C 207.471 174.617, 201.423 169.756, 195.545 164.343 C 183.349 153.112, 179.891 150.963, 176.960 152.793 C 173.996 154.644, 170.884 154.274, 170.290 152 C 169.801 150.132, 168.967 150.006, 157.633 150.094 C 146.745 150.179, 145.090 150.432, 141.500 152.564 M 496 161 C 496 164.333, 496.333 165, 498 165 C 499.607 165, 500 164.333, 500 161.607 C 500 159.435, 499.431 157.995, 498.418 157.607 C 496.021 156.687, 496 156.716, 496 161 M 116.930 161.250 C 111.817 165.182, 109 170.162, 109 175.267 C 109 179.175, 111.318 186, 112.645 186 C 114.067 186, 120.910 180.786, 122.296 178.647 C 123.066 177.459, 123.975 172.368, 124.333 167.250 C 124.937 158.585, 124.857 158, 123.067 158 C 122.016 158, 119.254 159.463, 116.930 161.250 M 502.446 161.750 C 502.625 163.262, 502.823 167.696, 502.886 171.602 C 503.021 180.005, 505.838 185.500, 510.010 185.500 C 517.115 185.500, 516.440 170.205, 509.008 162.773 C 504.430 158.195, 501.979 157.813, 502.446 161.750 M 297.634 164.655 C 296.491 172.992, 296.916 178.350, 298.989 181.750 C 300.079 183.537, 300.560 185, 300.058 185 C 298.790 185, 295 180.028, 295 178.365 C 295 176.723, 294.505 176.693, 289.993 178.055 C 288.072 178.635, 273.620 182.419, 257.877 186.462 C 242.024 190.534, 226.635 195.082, 223.384 196.657 C 219.148 198.708, 214.293 202.702, 205.949 211 C 190.094 226.766, 176.533 241.150, 169.653 249.500 C 163.021 257.550, 163.105 256.092, 168.186 274.750 C 171.154 285.648, 171.336 286, 174.027 286 C 176.543 286, 177.664 284.564, 185.936 270.750 C 204.239 240.185, 219.670 223.363, 237 215.083 L 244.500 211.500 268.292 211.170 C 287.979 210.897, 292.883 211.113, 296.720 212.420 C 299.270 213.289, 301.501 214, 301.678 214 C 301.855 214, 302 212.636, 302 210.968 C 302 204.153, 306.807 197.860, 313.063 196.486 C 319.008 195.180, 327 202.789, 327 209.755 C 327 212.709, 327.255 213.089, 328.750 212.357 C 329.712 211.886, 341.382 211.372, 354.681 211.216 C 377.105 210.953, 379.322 211.087, 385.181 213.054 C 399.143 217.742, 410.261 227.185, 425.147 247 C 432.245 256.447, 443.774 276.958, 445.242 282.750 C 445.670 284.436, 446.541 285, 448.717 285 C 451.558 285, 451.734 284.678, 456.776 270.272 C 461.442 256.941, 461.796 255.338, 460.510 253.374 C 457.114 248.192, 414.696 204.640, 408.274 199.742 C 403.622 196.194, 391.601 192.358, 360.091 184.366 C 346.116 180.821, 334.335 177.707, 333.913 177.446 C 333.490 177.185, 332.879 177.806, 332.555 178.827 C 331.995 180.591, 327 185.959, 327 184.796 C 327 184.493, 327.705 182.558, 328.566 180.496 C 329.751 177.661, 329.961 175.149, 329.429 170.184 C 328.764 163.968, 328.641 163.723, 327.113 165.569 C 323.308 170.165, 319.800 172, 314.815 172 C 308.372 172, 304.517 169.884, 301.077 164.460 L 298.268 160.031 297.634 164.655 M 495.826 203.250 C 495.754 223.188, 495.703 241.336, 495.713 243.579 C 495.768 256.626, 513.625 261.362, 519.551 249.901 C 523.635 242.004, 518.337 232.885, 510.267 233.921 C 509.437 234.028, 509.211 233.168, 509.577 231.290 C 509.875 229.755, 509.419 224.225, 508.564 219 C 507.708 213.775, 507.006 204.957, 507.004 199.405 C 507 190.419, 506.769 189.101, 504.898 187.407 C 501.339 184.187, 500 180.399, 500 173.550 C 500 167.644, 499.801 167, 497.979 167 C 495.990 167, 495.955 167.582, 495.826 203.250 M 119.750 185.479 L 114 190.706 114 207.228 C 114 216.315, 114.281 225.156, 114.625 226.875 C 115.174 229.621, 115.652 230, 118.566 230 C 120.390 230, 122.160 230.450, 122.500 231 C 123.680 232.909, 124.912 231.983, 125.496 228.750 C 125.819 226.963, 125.952 215.319, 125.792 202.876 L 125.500 180.253 119.750 185.479 M 309.923 202.923 C 307.017 205.830, 307 205.914, 307 217.864 L 307 229.881 309.750 228.447 C 313.395 226.545, 315.321 226.630, 318.014 228.810 C 322.289 232.272, 319.533 240, 314.024 240 C 313.059 240, 311.084 239.067, 309.635 237.927 L 307 235.855 307 254.362 C 307 271.485, 307.755 278, 309.738 278 C 310.171 278, 310.970 277.024, 311.513 275.832 C 313.729 270.965, 317.897 270.977, 318.264 275.851 C 318.379 277.376, 319.090 278, 320.713 278 L 323 278 323 241.923 L 323 205.846 320.077 202.923 C 318.469 201.315, 316.185 200, 315 200 C 313.815 200, 311.531 201.315, 309.923 202.923 M 528.040 216.452 C 526.099 218.790, 527.205 221.464, 530.259 221.816 C 532.564 222.083, 533 221.756, 533 219.766 C 533 217.514, 531.377 215, 529.922 215 C 529.550 215, 528.703 215.653, 528.040 216.452 M 90.724 218.134 C 86.838 220.309, 90.294 225.983, 94.224 223.880 C 95.201 223.357, 96 222.061, 96 221 C 96 218.485, 93.005 216.858, 90.724 218.134 M 253.879 229.721 C 250.210 230.111, 246.258 233.751, 228.500 253.103 C 225.750 256.099, 222.037 259.781, 220.250 261.283 C 218.463 262.786, 217 264.951, 217 266.094 C 217 267.288, 213.383 272.226, 208.500 277.701 C 201.043 286.061, 200.009 287.675, 200.070 290.865 C 200.109 292.864, 200.543 295.400, 201.035 296.500 C 201.630 297.831, 201.738 296.797, 201.357 293.408 C 200.829 288.713, 201.041 288.011, 204.075 284.408 C 211.602 275.468, 220.770 266.809, 224.750 264.881 C 227.088 263.748, 229 262.257, 229 261.567 C 229 259.237, 236.895 248.540, 243.295 242.200 C 248.767 236.779, 250.463 235.712, 255.441 234.555 L 261.227 233.210 265.363 236.855 C 270.633 241.498, 275.777 246.868, 277.716 249.750 C 279.737 252.754, 282.230 252.713, 281.816 249.682 C 281.362 246.351, 262.609 228.948, 259.712 229.168 C 258.495 229.261, 255.871 229.509, 253.879 229.721 M 108.119 233.074 C 100.294 237.833, 100.862 250.292, 109.099 254.551 C 113.930 257.049, 118.582 256.410, 122.641 252.690 C 128.613 247.217, 128.518 239.650, 122.392 232.881 C 120.094 230.342, 115.967 230.411, 115.290 233 C 114.689 235.298, 113 235.710, 113 233.559 C 113 231.153, 111.520 231.005, 108.119 233.074 M 311 232.311 C 311 234.410, 313.479 236.137, 315.422 235.391 C 317.995 234.404, 316.852 231.543, 313.741 231.184 C 311.872 230.968, 311 231.327, 311 232.311 M 465.052 258.500 C 464.358 260.150, 461.810 267.265, 459.391 274.311 C 454.406 288.830, 454.361 292, 459.141 292 C 464.325 292, 469.029 294.816, 475.893 302.030 C 483.475 309.996, 486.009 310.527, 485.988 304.143 C 485.963 296.384, 481.475 285.035, 473.508 272.580 C 470.137 267.311, 467.525 261.509, 466.717 257.500 C 466.372 255.785, 466.135 255.928, 465.052 258.500 M 398.326 258.593 C 397.549 260.619, 399.182 263.500, 401.109 263.500 C 403.422 263.500, 403.373 259.270, 401.046 258.025 C 399.362 257.123, 398.849 257.230, 398.326 258.593 M 150.179 273.795 C 144.858 283.444, 140.886 292.169, 138.760 298.880 L 135.500 309.171 124.250 308.487 C 113.273 307.819, 113 307.854, 113 309.901 C 113 311.912, 113.485 312, 124.566 312 C 131.029 312, 137.095 311.512, 138.316 310.894 C 139.517 310.286, 143.875 306.294, 148 302.023 C 154.375 295.423, 156.380 293.980, 161.365 292.410 C 164.591 291.393, 167.458 289.970, 167.735 289.247 C 168.287 287.809, 159.907 259, 158.936 259 C 158.607 259, 154.667 265.658, 150.179 273.795 M 27.012 262.486 C 25.995 263.711, 25.958 264.569, 26.846 266.284 C 27.477 267.503, 28.123 274.125, 28.281 281 L 28.568 293.500 28.784 280.867 C 28.987 269.017, 29.129 268.200, 31.074 267.691 C 32.666 267.275, 33.072 266.493, 32.824 264.324 C 32.446 261.024, 29.102 259.967, 27.012 262.486 M 596.012 262.977 C 595.172 264.547, 595.370 265.370, 596.977 266.977 C 598.752 268.752, 599 270.294, 599 279.532 C 599 289.520, 598.884 290.111, 596.750 290.969 C 595.513 291.466, 595.092 291.902, 595.816 291.937 C 596.539 291.971, 598.002 291.534, 599.066 290.965 C 600.798 290.038, 601 288.782, 601 278.951 C 601 272.199, 601.458 267.239, 602.190 266.068 C 603.123 264.573, 603.097 263.821, 602.067 262.581 C 600.261 260.404, 597.285 260.599, 596.012 262.977 M 326.750 263.572 C 326.337 263.991, 326 266.733, 326 269.667 C 326 274.376, 326.240 275, 328.050 275 C 332.082 275, 335.661 277.971, 345.996 289.899 C 351.762 296.555, 356.724 302, 357.022 302 C 357.319 302, 360.149 299.386, 363.311 296.191 L 369.059 290.383 362.682 281.929 C 354.605 271.221, 350.310 267.467, 343.991 265.590 C 337.704 263.723, 327.749 262.558, 326.750 263.572 M 313.345 275.543 C 313.019 276.392, 313.014 277.347, 313.333 277.667 C 314.342 278.676, 317 277.128, 317 275.531 C 317 273.535, 314.112 273.545, 313.345 275.543 M 326.733 279.254 C 326.399 280.123, 323.835 280.481, 318.376 280.421 C 312.751 280.359, 310 280.759, 308.750 281.822 C 307.695 282.719, 307 282.869, 307 282.200 C 307 280.555, 300.220 279.579, 297.476 280.829 C 294.119 282.358, 291.827 286.304, 291.590 290.962 C 291.461 293.487, 290.577 295.821, 289.193 297.295 C 287.987 298.579, 287 300.114, 287 300.706 C 287 302.148, 281.954 303.354, 280.790 302.190 C 280.228 301.628, 281.526 299.850, 284.114 297.634 C 290.173 292.448, 287.932 293.135, 280.983 298.594 C 277.307 301.483, 275.336 303.711, 275.675 304.594 C 275.971 305.367, 275.716 306, 275.108 306 C 274.500 306, 272.168 307.781, 269.925 309.957 C 265.225 314.518, 262.508 315.666, 260.452 313.960 C 258.297 312.171, 258.676 311.118, 261.750 310.356 C 263.262 309.981, 266.179 308.568, 268.232 307.216 L 271.964 304.758 269.933 301.906 C 267.574 298.593, 259.786 292, 258.232 292 C 256.520 292, 250.362 301.100, 248.662 306.141 C 247.802 308.694, 246.963 313.644, 246.799 317.141 L 246.500 323.500 260.500 323.500 L 274.500 323.500 275 319.078 C 275.580 313.945, 277.544 312.670, 278.994 316.484 C 281.237 322.383, 279.153 334.159, 275.750 334.811 C 274.313 335.087, 274 334.413, 274 331.046 L 274 326.945 259.750 327.223 L 245.500 327.500 245.184 330.250 C 244.874 332.942, 244.979 333.001, 250.184 333.024 C 257.799 333.058, 262.536 334.391, 266.623 337.650 C 268.589 339.218, 271.306 341.101, 272.662 341.835 C 275.994 343.640, 276.596 345.684, 274.483 348.018 C 272.513 350.196, 272.077 349.318, 279.928 359 C 291.309 373.034, 297.573 378.396, 301.449 377.423 C 303.791 376.836, 304 376.340, 304 371.360 C 304 367.068, 303.635 365.824, 302.250 365.396 C 299.102 364.424, 297.505 363.310, 297.226 361.893 C 297.003 360.754, 300.052 360.457, 313.976 360.264 C 330.139 360.039, 331 360.124, 331 361.934 C 331 363.240, 330.054 364.049, 328 364.500 C 325.020 365.154, 325 365.205, 325 372.060 C 325 378.637, 325.121 378.992, 327.568 379.606 C 329.534 380.100, 330.499 379.733, 331.683 378.041 C 332.535 376.826, 337.792 370.580, 343.366 364.161 C 357.682 347.674, 356.711 349.186, 354.135 347.382 C 352.236 346.052, 352.032 345.241, 352.572 341.172 C 352.913 338.598, 352.713 333.899, 352.127 330.730 C 351.441 327.016, 351.398 324.083, 352.008 322.480 C 352.638 320.822, 352.578 319.169, 351.830 317.526 C 350.438 314.471, 352.268 311.752, 355.412 312.202 C 357.984 312.569, 358.696 316.178, 356.548 317.960 C 355.697 318.667, 355 320.315, 355 321.622 C 355 323.774, 355.428 324, 359.500 324 C 363.791 324, 364 323.866, 364 321.122 C 364 316.248, 361.325 311.473, 354.271 303.759 C 350.547 299.687, 343.755 292.225, 339.178 287.178 C 331.316 278.507, 327.863 276.309, 326.733 279.254 M 312.384 285.442 C 311.319 288.217, 312.456 290.500, 314.905 290.500 C 317.658 290.500, 319.600 288.005, 318.691 285.636 C 317.912 283.607, 313.144 283.461, 312.384 285.442 M 321.977 286.528 C 321.183 287.485, 321.013 288.429, 321.564 288.826 C 322.079 289.197, 322.998 290.400, 323.607 291.500 C 324.216 292.600, 325.566 293.644, 326.607 293.821 C 327.648 293.997, 329.561 295.347, 330.857 296.821 L 333.215 299.500 331.077 295.500 C 329.901 293.300, 328.585 290.150, 328.152 288.500 C 327.244 285.038, 324.058 284.020, 321.977 286.528 M 305.750 286.783 C 302.616 287.182, 302.009 289.933, 304.584 292.070 C 306.471 293.636, 309.306 292.271, 309.844 289.537 C 310.304 287.195, 309.066 286.362, 305.750 286.783 M 28 294.902 C 28 295.463, 27.012 296.842, 25.806 297.967 C 24.149 299.509, 23.894 300.294, 24.763 301.163 C 25.633 302.033, 26.266 302.024, 27.347 301.127 C 29.060 299.705, 30.087 295.172, 28.866 294.417 C 28.390 294.123, 28 294.341, 28 294.902 M 173 299 C 173 299.550, 173.648 300, 174.441 300 C 175.234 300, 176.160 299.550, 176.500 299 C 176.840 298.450, 176.191 298, 175.059 298 C 173.927 298, 173 298.450, 173 299 M 100.611 302.532 C 99.768 303.375, 98.771 305.703, 98.395 307.706 C 97.831 310.715, 98.084 311.650, 99.852 313.082 C 102.982 315.616, 110 313.113, 110 309.462 C 110 307.911, 106.647 306.982, 104.915 308.053 C 103.275 309.066, 99.719 307.264, 100.587 305.860 C 100.961 305.255, 102.650 305.087, 104.632 305.459 C 108.975 306.273, 110.330 305.486, 108.968 302.939 C 107.700 300.571, 102.810 300.333, 100.611 302.532 M 522.315 302.039 C 515.925 304.521, 517.749 315, 524.571 315 C 527.294 315, 531.337 311.512, 530.730 309.688 C 530.513 309.034, 529.022 308.211, 527.418 307.858 C 524.605 307.240, 524.583 307.190, 526.791 306.481 C 529.398 305.644, 529.277 304.237, 526.445 302.431 C 525.196 301.634, 523.718 301.494, 522.315 302.039 M 306.500 308.567 C 292.313 315.919, 291.296 331.819, 304.459 340.484 C 307.970 342.796, 309.314 343.096, 314.713 342.777 C 319.801 342.476, 321.592 341.870, 324.608 339.430 C 330.207 334.898, 332.192 330.571, 331.754 323.848 C 331.481 319.642, 330.704 317.301, 328.720 314.700 C 323.603 307.991, 313.168 305.111, 306.500 308.567 M 484.414 310.861 C 485.186 312.110, 503.177 313.247, 509.559 312.449 C 519.818 311.168, 514.995 310, 499.441 310 C 490.884 310, 484.121 310.387, 484.414 310.861 M 306.420 313.886 C 302.319 316.386, 299.618 322.153, 300.456 326.619 C 301.286 331.043, 306.334 336.764, 310.352 337.834 C 316.213 339.394, 322.677 336.309, 325.351 330.674 C 327.526 326.090, 327.429 322.215, 325.040 318.299 C 321.319 312.195, 312.586 310.126, 306.420 313.886 M 12.787 316.953 C 9.317 319.682, 8.287 324.721, 10.375 328.757 C 14.468 336.674, 26 333.278, 26 324.156 C 26 319.190, 23.540 316.106, 19 315.379 C 16.354 314.956, 14.837 315.341, 12.787 316.953 M 212.245 319.250 C 210.071 321.968, 209.797 325.118, 211.565 327.072 C 214.905 330.762, 221 328.279, 221 323.228 C 221 319.404, 214.489 316.446, 212.245 319.250 M 406.688 318.646 C 405.383 319.950, 406.006 321, 408.083 321 C 409.247 321, 409.992 320.476, 409.771 319.813 C 409.284 318.351, 407.614 317.719, 406.688 318.646 M 213 322.531 C 213 324.555, 215.823 325.577, 217.309 324.091 C 218.208 323.192, 218.134 322.696, 216.992 321.974 C 214.759 320.562, 213 320.808, 213 322.531 M 158.011 323.487 C 156.543 325.256, 157.355 328, 159.346 328 C 160.121 328, 161.276 327.373, 161.912 326.606 C 162.805 325.530, 162.703 324.846, 161.463 323.606 C 159.505 321.648, 159.536 321.649, 158.011 323.487 M 413.424 325.471 C 413.466 327.409, 413.950 328.845, 414.500 328.663 C 415.846 328.219, 415.781 322.760, 414.424 322.308 C 413.783 322.094, 413.379 323.373, 413.424 325.471 M 450.418 323.456 C 448.624 324.786, 448.608 324.988, 450.172 326.576 C 452.013 328.444, 455 327.874, 455 325.654 C 455 323.069, 452.535 321.887, 450.418 323.456 M 464.105 323.373 C 462.439 325.381, 463.860 328.162, 466.367 327.803 C 468.823 327.451, 469.821 324.135, 467.848 322.885 C 465.995 321.710, 465.423 321.785, 464.105 323.373 M 172.350 324.531 C 171.638 326.387, 173.643 328.147, 176 327.735 C 176.825 327.591, 177.500 326.579, 177.500 325.486 C 177.500 322.918, 173.270 322.133, 172.350 324.531 M 404.362 324.500 C 403.401 327.004, 404.793 329, 407.500 329 C 410.781 329, 411.976 326.186, 409.471 324.355 C 407.044 322.581, 405.077 322.636, 404.362 324.500 M 425.667 323.667 C 423.064 326.269, 426.901 331.743, 430.389 330.404 C 432.517 329.588, 433.411 326.200, 431.960 324.452 C 430.723 322.961, 426.855 322.478, 425.667 323.667 M 237.667 327.667 C 237.300 328.033, 237 329.188, 237 330.233 C 237 333.172, 242.392 332.261, 242.820 329.250 C 243.075 327.452, 242.656 327, 240.736 327 C 239.415 327, 238.033 327.300, 237.667 327.667 M 239.583 328.866 C 239.152 329.563, 239.070 330.403, 239.400 330.733 C 240.295 331.628, 241.271 330.312, 240.787 328.862 C 240.449 327.846, 240.213 327.846, 239.583 328.866 M 417.750 331.428 C 416.788 332.139, 416 333.008, 416 333.360 C 416 334.444, 419.841 334.067, 420.554 332.913 C 421.664 331.117, 419.629 330.039, 417.750 331.428 M 104.185 331.684 C 101.728 332.667, 100.798 337.043, 102.496 339.635 C 105.882 344.802, 113.274 340.481, 111.051 334.635 C 110.500 333.186, 109.625 332, 109.107 332 C 108.588 332, 107.564 331.811, 106.832 331.579 C 106.099 331.348, 104.908 331.395, 104.185 331.684 M 489.607 333.582 C 489.273 334.452, 489 336.252, 489 337.582 L 489 340 503.891 340 L 518.781 340 519.193 336.469 C 519.420 334.528, 519.394 332.728, 519.136 332.469 C 518.878 332.211, 512.265 332, 504.440 332 C 492.390 332, 490.121 332.242, 489.607 333.582 M 355.321 352.750 C 354.190 354.262, 349.109 360.225, 344.028 366 C 330.103 381.830, 330.646 380.311, 336.810 386.191 C 339.667 388.916, 342.587 391.001, 343.298 390.823 C 344.591 390.500, 365.957 367.934, 368.764 363.926 C 370.163 361.929, 369.913 361.470, 364.405 355.904 C 361.192 352.657, 358.296 350, 357.969 350 C 357.643 350, 356.451 351.238, 355.321 352.750 M 485.154 355.154 C 484.501 357.984, 484.148 360.481, 484.370 360.704 C 484.593 360.926, 485.326 358.809, 486 356 C 486.674 353.191, 487.027 350.693, 486.783 350.450 C 486.540 350.207, 485.807 352.324, 485.154 355.154 M 420 359.965 L 420 367.931 413.267 374.697 C 409.564 378.418, 406.077 381.515, 405.517 381.579 C 404.958 381.643, 403.797 381.764, 402.939 381.848 C 400.227 382.112, 397 385.938, 397 388.889 C 397 391.129, 394.656 394.083, 385.435 403.459 C 379.074 409.927, 374.074 415.732, 374.323 416.359 C 374.573 416.987, 376.290 418.363, 378.138 419.417 L 381.500 421.333 379.578 419.148 L 377.657 416.963 387.684 406.732 C 393.200 401.104, 397.902 395.901, 398.133 395.170 C 398.475 394.088, 399.062 394.071, 401.277 395.080 C 407.133 397.749, 411.401 392.472, 409.197 385.289 C 408.141 381.851, 408.234 381.671, 414.561 374.935 L 421 368.079 421 360.040 C 421 355.618, 420.775 352, 420.500 352 C 420.225 352, 420 355.584, 420 359.965 M 201.158 358.451 C 202.435 366.596, 203.268 368.157, 211.057 376.995 C 217.729 384.567, 218.101 385.231, 216.604 386.885 C 214.214 389.526, 214.627 393.717, 217.566 396.657 C 219.633 398.724, 220.742 399.102, 223.263 398.597 C 226.220 398.006, 226.987 398.596, 237.097 409.236 C 245.816 418.411, 248.044 420.266, 249.113 419.237 C 250.185 418.205, 249.139 416.653, 243.379 410.737 C 232.681 399.748, 229 394.954, 229 392.009 C 229 388.796, 225.668 385, 222.848 385 C 220.359 385, 207.085 372.031, 204.564 367.137 C 203.612 365.288, 202.582 361.351, 202.276 358.387 C 201.970 355.424, 201.401 353, 201.011 353 C 200.622 353, 200.687 355.453, 201.158 358.451 M 52.450 358.407 C 50.773 359.137, 48.180 361.185, 46.689 362.958 L 43.977 366.181 44.238 404.757 C 44.440 434.541, 44.785 443.429, 45.750 443.750 C 46.735 444.079, 47 436.132, 47 406.218 C 47 369.249, 47.054 368.201, 49.088 365.615 C 53.398 360.136, 54.327 360, 87.482 360 C 111.272 360, 118.779 360.307, 121.282 361.381 C 125.816 363.326, 130.462 368.559, 133.438 375.073 C 138.322 385.762, 138.701 394.947, 134.538 401.770 L 132.873 404.500 135.334 401.813 C 141.922 394.621, 137.680 374.636, 127.377 364.327 C 124.011 360.959, 122.269 360.028, 118.353 359.503 C 115.684 359.145, 112.195 358.435, 110.601 357.926 C 105.862 356.412, 56.084 356.824, 52.450 358.407 M 515.500 358.447 C 511.026 359.624, 513.606 359.775, 540 359.885 C 567.555 359.999, 569.715 360.139, 572.759 361.995 C 574.552 363.088, 576.928 365.448, 578.041 367.241 C 579.985 370.375, 580.052 371.850, 579.781 405.740 C 579.571 432.064, 579.798 441.093, 580.677 441.430 C 581.324 441.678, 582.224 441.345, 582.677 440.691 C 583.130 440.036, 583.275 423.219, 583 403.321 C 582.519 368.510, 582.420 367.035, 580.395 364.321 C 579.238 362.769, 576.763 360.600, 574.895 359.500 C 571.765 357.656, 569.511 357.486, 546 357.316 C 527.599 357.182, 519.108 357.497, 515.500 358.447 M 306.589 365.856 C 306.298 366.327, 306.334 369.027, 306.669 371.856 C 307.111 375.585, 307.722 377.035, 308.889 377.128 C 313.329 377.479, 314.772 377.807, 316.909 378.951 C 319.071 380.108, 319.118 380.311, 317.580 381.848 C 316.043 383.384, 315.653 383.343, 312.028 381.257 C 308.642 379.310, 307.940 379.203, 306.695 380.448 C 305.907 381.236, 304.356 381.644, 303.249 381.355 C 301.771 380.968, 299.544 382.419, 294.870 386.812 L 288.504 392.796 292.002 394.338 C 293.926 395.186, 297.525 396.469, 300 397.190 L 304.500 398.500 304.789 407.250 L 305.078 416 314.539 416 L 324 416 324 408.582 C 324 404.502, 324.268 400.466, 324.595 399.613 C 324.954 398.678, 327.474 397.614, 330.950 396.930 C 340.054 395.139, 340.207 394.797, 334.499 388.975 C 330.289 384.680, 329.066 383.960, 326.750 384.412 C 324.729 384.807, 324 384.551, 324 383.444 C 324 382.615, 323.312 381.673, 322.470 381.350 C 321.480 380.970, 321.159 380.074, 321.560 378.811 C 321.901 377.737, 321.870 374.190, 321.492 370.929 L 320.804 365 313.961 365 C 310.197 365, 306.880 365.385, 306.589 365.856 M 173.566 372.690 C 173.191 374.236, 170.814 380.168, 168.282 385.874 C 163.697 396.209, 163.686 396.261, 165.398 399.440 C 167.683 403.683, 182.646 420.429, 198.589 436.584 C 210.901 449.060, 211.913 449.842, 220.402 453.432 C 231.520 458.134, 240.276 460.786, 265.218 467.008 C 293.771 474.131, 295.307 475.203, 296.229 488.655 C 296.972 499.496, 302.477 506.584, 311.047 507.733 C 316.363 508.446, 319.365 507.496, 323.631 503.751 C 328.412 499.553, 330 495.522, 330 487.579 C 330 480.243, 331.251 476.721, 334.649 474.494 C 335.936 473.651, 346.329 470.710, 357.745 467.960 C 392.060 459.691, 407.123 453.956, 416.705 445.511 C 423.517 439.507, 453.157 408.146, 456.892 402.991 C 460.271 398.326, 460.225 398.039, 453.223 380.500 C 449.785 371.885, 448.886 370.458, 446.738 370.195 C 444.502 369.922, 443.847 370.749, 440.406 378.195 C 427.571 405.965, 417.248 420.775, 403.890 430.581 C 391.381 439.763, 382.252 441.431, 347.750 440.839 C 336.887 440.653, 328 440.837, 328 441.250 C 328 442.889, 324.003 441.875, 322.989 439.979 C 321.817 437.789, 322.411 435.999, 324.309 436.002 C 325.684 436.005, 325.411 418.875, 324.023 418.009 C 323.574 417.729, 318.997 417.725, 313.853 418 L 304.500 418.500 304.346 428.368 C 304.235 435.465, 303.787 438.642, 302.750 439.679 C 301.564 440.864, 296.789 441.104, 275.904 441.028 C 261.932 440.977, 247.653 440.529, 244.174 440.033 C 224.820 437.272, 203.186 415.539, 185.740 381.329 C 182.505 374.986, 179.979 371.178, 179.027 371.212 C 178.187 371.242, 176.768 370.955, 175.873 370.574 C 174.656 370.055, 174.075 370.588, 173.566 372.690 M 316.186 372.096 C 314.913 372.584, 314.152 373.437, 314.495 373.992 C 315.324 375.333, 318.708 375.281, 319.554 373.913 C 320.630 372.172, 318.702 371.132, 316.186 372.096 M 400.537 386.606 C 399.297 387.846, 399.195 388.530, 400.088 389.606 C 402.537 392.557, 407.744 390.104, 406.410 386.627 C 405.612 384.546, 402.607 384.536, 400.537 386.606 M 503.411 388.891 C 501.713 389.927, 499.318 392.051, 498.091 393.611 L 495.860 396.448 496.055 443.474 C 496.163 469.338, 495.921 491.288, 495.518 492.250 C 494.930 493.656, 495.298 494, 497.393 494 C 499.761 494, 500 493.639, 500 490.065 C 500 487.901, 499.577 485.016, 499.059 483.655 C 498.502 482.189, 498.440 477.167, 498.907 471.340 C 499.588 462.853, 500.122 460.813, 502.793 456.500 C 505.370 452.338, 506.484 448.340, 509.444 432.641 C 511.400 422.268, 513 412.913, 513 411.851 C 513 410.789, 514.800 408.156, 517 406 C 520.283 402.782, 521 401.395, 521 398.262 C 521 393.550, 518.774 390.221, 514.401 388.394 C 509.908 386.517, 507.096 386.644, 503.411 388.891 M 107.420 389.826 C 103.928 392.023, 100.998 397.423, 101.004 401.651 C 101.009 405.474, 104.174 410.440, 108.352 413.179 L 111.772 415.421 112.242 430.960 C 112.501 439.507, 113.306 448.581, 114.030 451.125 L 115.348 455.749 111.091 459.799 L 106.834 463.849 107.167 476.347 C 107.479 488.069, 107.655 489.011, 110 491.518 C 113.516 495.276, 117.255 497, 121.891 497 C 126.608 497, 127.720 498.286, 125.916 501.657 C 124.877 503.599, 124.852 504.533, 125.798 506.048 C 126.459 507.107, 127.034 508.766, 127.076 509.736 C 127.118 510.706, 127.728 509.925, 128.432 508 C 129.136 506.075, 129.493 502.813, 129.224 500.750 L 128.737 497 133.634 497 C 140.353 497, 144.980 499.634, 147.750 505.036 C 149.822 509.077, 150.001 510.770, 150.010 526.462 C 150.019 542.205, 150.197 543.880, 152.353 548.500 C 153.636 551.250, 156.547 555.177, 158.821 557.227 C 165.287 563.056, 168.830 564.107, 181.476 563.947 C 187.539 563.871, 193.688 564.113, 195.141 564.485 C 196.685 564.881, 198.059 564.713, 198.450 564.081 C 198.866 563.408, 204.282 562.927, 212.809 562.806 L 226.500 562.611 213 562.056 C 203.556 561.667, 198.831 561.057, 197.275 560.025 C 195.519 558.861, 194.792 558.808, 193.825 559.775 C 193.008 560.592, 188.968 561, 181.701 561 C 169.281 561, 165.807 559.865, 160.038 553.920 C 154.149 547.851, 152.989 542.937, 152.995 524.066 C 152.999 509.574, 152.759 507.134, 150.965 503.427 C 148.040 497.385, 142.299 493.722, 134.919 493.188 L 129 492.760 129 451.571 C 129 418.979, 129.276 410.004, 130.323 408.572 C 132.068 406.187, 130.961 398.765, 128.337 395.250 C 124.911 390.661, 121.367 388.692, 115.791 388.280 C 111.790 387.984, 109.749 388.361, 107.420 389.826 M 219.238 389.162 C 216.559 391.841, 219.274 395.682, 223.010 394.497 C 224.580 393.999, 225.038 393.150, 224.808 391.164 C 224.465 388.196, 221.331 387.069, 219.238 389.162 M 108.873 390.684 C 105.356 392.866, 102.999 397.071, 103.004 401.154 C 103.015 410.993, 115.035 417.325, 123.686 412.050 C 128.005 409.416, 129.325 406.580, 128.723 401.232 C 128.181 396.430, 124.516 391.802, 120.250 390.534 C 118.388 389.981, 117.980 390.265, 117.884 392.183 C 117.781 394.235, 117.711 394.272, 117.268 392.500 C 116.325 388.725, 113.139 388.036, 108.873 390.684 M 89.970 415.536 C 88.154 417.725, 89.908 420.500, 93.109 420.500 C 95.099 420.500, 95.500 419.997, 95.500 417.500 C 95.500 415.220, 94.999 414.428, 93.412 414.202 C 92.264 414.038, 90.715 414.638, 89.970 415.536 M 119 414.879 L 116.500 415.594 116.500 432.716 C 116.500 448.905, 116.623 450.004, 118.750 452.879 C 119.987 454.551, 120.976 456.275, 120.946 456.710 C 120.916 457.144, 118.792 458.850, 116.226 460.500 C 110.966 463.882, 110.241 465.599, 110.105 475 C 109.925 487.469, 113.212 492.932, 121.115 493.297 L 125.500 493.500 125.500 454 C 125.500 415.223, 125.463 414.497, 123.500 414.332 C 122.400 414.239, 120.375 414.486, 119 414.879 M 530.046 416.444 C 527.345 419.699, 531.815 423.614, 534.811 420.618 C 536.084 419.344, 536.215 418.563, 535.376 417.231 C 533.916 414.913, 531.601 414.571, 530.046 416.444 M 312.200 426.200 C 309.013 429.387, 312.963 434.161, 317 432 C 320.406 430.177, 318.927 425, 315 425 C 314.120 425, 312.860 425.540, 312.200 426.200 M 570.210 444.345 C 565.316 447.955, 562.893 451.611, 562.165 456.479 C 561.565 460.493, 560.284 462.170, 549 473.720 C 542.125 480.756, 532.112 491.060, 526.750 496.617 L 517 506.720 517 516.813 C 517 522.425, 516.477 528.053, 515.823 529.490 C 514.326 532.774, 516.589 535.583, 519.888 534.535 C 522.646 533.660, 522.718 529.455, 520 528 C 518.203 527.038, 518 525.906, 518 516.844 L 518 506.758 536.174 488.129 C 546.170 477.883, 556.295 467.572, 558.674 465.215 C 561.477 462.439, 563 460.051, 563 458.433 C 563 454.163, 565.563 449.530, 570.050 445.689 C 574.912 441.527, 574.998 440.813, 570.210 444.345 M 51.323 448.250 C 48.466 451.424, 47.931 453.505, 49.107 456.877 C 50.448 460.724, 55.111 462.774, 59.095 461.270 C 61.737 460.273, 62.210 460.496, 65.625 464.348 C 70.880 470.274, 104.217 504.144, 102.735 502.050 C 102.056 501.091, 92.950 491.429, 82.500 480.578 C 63.881 461.246, 63.506 460.773, 63.812 456.975 C 64.521 448.159, 56.469 442.533, 51.323 448.250 M 51.655 449.829 C 49.153 452.594, 49.585 456.529, 52.657 458.945 C 55.520 461.197, 58.142 460.958, 61.330 458.155 C 63.513 456.235, 62.930 451.213, 60.295 449.250 C 57.856 447.432, 53.564 447.720, 51.655 449.829 M 96.238 449.162 C 93.559 451.841, 96.274 455.682, 100.010 454.497 C 101.580 453.999, 102.038 453.150, 101.808 451.164 C 101.465 448.196, 98.331 447.069, 96.238 449.162 M 526.238 449.162 C 524.468 450.932, 524.709 452.774, 526.862 453.926 C 529.296 455.229, 532.355 453.087, 531.849 450.434 C 531.415 448.159, 528.012 447.388, 526.238 449.162 M 201.827 455.735 C 189.661 465.734, 165.604 487.866, 164.428 490.138 C 163.184 492.545, 162.588 492.807, 159.506 492.307 C 156.916 491.887, 156 492.099, 155.999 493.119 C 155.997 494.244, 158.607 494.439, 170.057 494.173 C 181.569 493.906, 184.553 494.133, 186.523 495.423 C 189.559 497.413, 189.170 497.486, 192.719 494.250 C 196.679 490.639, 207.406 484, 209.281 484 C 210.092 484, 211.334 483.302, 212.042 482.450 C 213.102 481.173, 213.052 480.623, 211.760 479.331 C 209.928 477.499, 208.229 478.268, 207.006 481.483 C 205.968 484.214, 194.811 491.235, 190.527 491.853 C 188.862 492.093, 182.438 492.477, 176.250 492.705 C 164.218 493.150, 163.200 492.696, 166.783 488.480 C 168.015 487.031, 201.530 456.938, 205.917 453.342 C 206.146 453.154, 206.068 453, 205.743 453 C 205.419 453, 203.656 454.231, 201.827 455.735 M 504.412 461.095 C 502.740 462.942, 502.457 465.134, 502.160 478.603 L 501.821 494 504.863 494 C 509.114 494, 512.583 492.210, 513.890 489.343 C 514.500 488.002, 515 482.450, 515 477.004 C 515 466.436, 514.915 466.226, 508.410 460.742 C 506.409 459.055, 506.248 459.069, 504.412 461.095 M 312.069 461.871 C 311.251 463.400, 311.367 464.225, 312.573 465.431 C 315.454 468.311, 319.379 466.717, 318.837 462.887 C 318.384 459.681, 313.624 458.966, 312.069 461.871 M 224.970 498.944 C 225.543 500.014, 226.505 501.194, 227.109 501.567 C 227.713 501.941, 227.434 501.066, 226.489 499.623 C 224.487 496.568, 223.451 496.105, 224.970 498.944 M 228 503.313 C 228 503.485, 229.463 504.948, 231.250 506.563 L 234.500 509.500 231.563 506.250 C 228.825 503.221, 228 502.540, 228 503.313 M 104.846 515.751 C 105.136 524.621, 104.935 526.457, 103.596 527.206 C 101.516 528.370, 101.537 532.608, 103.627 533.410 C 106.739 534.605, 109.805 529.234, 107 527.500 C 106.437 527.152, 106 522.343, 106 516.500 C 106 510.790, 105.662 505.909, 105.250 505.653 C 104.838 505.397, 104.655 509.941, 104.846 515.751 M 395.286 507.699 C 393.239 509.826, 392.241 510, 382.095 510 C 375.856 510, 370.851 509.568, 370.500 509 C 368.618 505.955, 362.299 510.217, 363.427 513.770 C 363.897 515.250, 362.273 517.266, 356.267 522.659 C 346.096 531.794, 342.928 534.041, 338.865 535 C 336.050 535.665, 335.911 535.812, 338.016 535.898 C 341.872 536.055, 346.174 533.257, 355.923 524.250 C 360.835 519.712, 365.326 516, 365.904 516 C 366.481 516, 367.691 514.875, 368.592 513.500 C 370.180 511.077, 370.578 511, 381.559 511 C 392.096 511, 393.085 510.831, 395.694 508.585 C 397.237 507.257, 398.275 505.997, 398 505.785 C 397.725 505.572, 396.504 506.434, 395.286 507.699 M 251 508.477 C 251 509.440, 249.487 510.019, 246.250 510.294 C 242.351 510.625, 242.561 510.679, 247.421 510.598 C 253.128 510.504, 255.866 508.930, 252.542 507.655 C 251.601 507.293, 251 507.613, 251 508.477 M 235.813 509.683 C 236.534 509.972, 237.397 509.936, 237.729 509.604 C 238.061 509.272, 237.471 509.036, 236.417 509.079 C 235.252 509.127, 235.015 509.364, 235.813 509.683 M 126.005 513.750 C 126.015 515.111, 129.411 519.704, 135.750 526.928 C 139.188 530.846, 142 534.565, 142 535.192 C 142 535.820, 142.286 536.047, 142.635 535.698 C 143.529 534.805, 140.694 530.738, 134.429 523.923 C 131.475 520.710, 128.771 516.938, 128.421 515.540 C 127.848 513.260, 125.992 511.884, 126.005 513.750 M 143.465 542.201 C 143.674 545.336, 144.352 548.711, 144.970 549.701 C 145.933 551.240, 145.997 551.143, 145.412 549.036 C 145.037 547.681, 144.359 544.306, 143.907 541.536 L 143.085 536.500 143.465 542.201 M 308.571 549.571 C 306.181 551.962, 306.551 557.572, 309.223 559.443 C 310.445 560.299, 312.409 561, 313.588 561 C 316.656 561, 321 557.250, 321 554.602 C 321 549.391, 312.281 545.862, 308.571 549.571 M 147.084 553.894 C 149.158 558.247, 156.087 564.865, 161.279 567.452 C 166.150 569.879, 167.190 570, 183.228 570 C 195.149 570, 201.004 570.396, 203.282 571.356 C 206.388 572.664, 208.756 574.904, 218.126 585.398 C 224.609 592.657, 225.968 593, 248.256 593 C 266.325 593, 267.860 592.854, 271.964 590.750 C 278.887 587.200, 280 584.074, 280 568.182 C 280 557.949, 279.708 554.930, 278.750 555.247 C 277.872 555.537, 277.349 559.507, 276.994 568.580 C 276.459 582.231, 275.785 584.341, 270.842 587.842 C 268.919 589.203, 265.280 589.560, 250.504 589.835 C 239.133 590.046, 231.132 589.757, 228.770 589.049 C 226.050 588.234, 223.358 585.967, 218.878 580.715 C 215.492 576.747, 210.872 572.375, 208.611 571 C 204.598 568.559, 204.037 568.500, 185 568.500 C 166.698 568.500, 165.242 568.362, 161.295 566.252 C 156.912 563.910, 150.671 558.293, 147.683 554 C 145.985 551.561, 145.970 551.558, 147.084 553.894 M 310.998 553.502 C 309.883 554.846, 309.940 555.368, 311.355 556.783 C 313.394 558.823, 316.500 557.379, 316.500 554.391 C 316.500 551.958, 312.779 551.356, 310.998 553.502 M 230.250 562.689 C 231.213 562.941, 232.787 562.941, 233.750 562.689 C 234.713 562.438, 233.925 562.232, 232 562.232 C 230.075 562.232, 229.287 562.438, 230.250 562.689 M 312 594.987 L 312 617.973 308.668 619.365 C 301.873 622.204, 298.607 629.730, 301.336 636.261 C 305.518 646.270, 320.467 646.306, 324.641 636.316 C 327.379 629.763, 324.155 622.216, 317.413 619.399 L 314.162 618.041 314.734 595.020 C 315.256 574.043, 315.160 572, 313.654 572 C 312.163 572, 312 574.272, 312 594.987 M 224.666 607.427 C 224.013 609.129, 226.471 611.445, 227.956 610.527 C 228.530 610.172, 229 609.009, 229 607.941 C 229 605.649, 225.508 605.235, 224.666 607.427 M 394.543 606.931 C 394.226 607.443, 394.425 608.144, 394.984 608.490 C 395.543 608.835, 396 608.416, 396 607.559 C 396 605.802, 395.400 605.544, 394.543 606.931 M 242.652 619.750 C 242.396 620.163, 248.107 620.383, 255.343 620.240 C 279.263 619.769, 281.759 619.394, 262.309 619.196 C 251.754 619.088, 242.908 619.337, 242.652 619.750 M 350.797 619.745 C 355.361 619.930, 362.561 619.929, 366.797 619.742 C 371.034 619.555, 367.300 619.404, 358.500 619.405 C 349.700 619.406, 346.234 619.559, 350.797 619.745 M 307.763 621.565 C 304.435 623.371, 302 627.802, 302 632.050 C 302 634.299, 302.973 636.173, 305.400 638.600 C 309.795 642.995, 315.286 643.313, 319.889 639.440 C 329.735 631.155, 319.068 615.431, 307.763 621.565" stroke="none" fill="inherit" fill-rule="evenodd"></path>
</g></svg><svg id="name" viewBox="0 0 296.65399169921875 44.66600036621094" width="296" height="44.56753146205265" x="0" y="111.34394904458598" data-v-719f541d="" style="fill: rgb(0, 0, 0);"><rect x="0" y="0" width="100%" height="100%" fill="none" data-v-719f541d=""></rect><g data-v-719f541d=""><path xmlns="http://www.w3.org/2000/svg" d="M0 4.37L0 3.45Q1.15 3.50 3.10 3.54Q5.06 3.59 6.99 3.59L6.99 3.59Q9.20 3.59 11.27 3.54Q13.34 3.50 14.21 3.50L14.21 3.50Q20.61 3.50 23.78 6.03Q26.96 8.56 26.96 12.56L26.96 12.56Q26.96 14.21 26.31 16.03Q25.67 17.85 24.13 19.39Q22.59 20.93 19.92 21.90Q17.25 22.86 13.20 22.86L13.20 22.86L8.51 22.86L8.51 21.94L12.74 21.94Q15.46 21.94 16.86 20.70Q18.26 19.46 18.79 17.43Q19.32 15.41 19.32 13.06L19.32 13.06Q19.32 8.69 18.03 6.53Q16.74 4.37 13.62 4.37L13.62 4.37Q11.82 4.37 11.29 5.15Q10.76 5.93 10.76 8.33L10.76 8.33L10.76 30.87Q10.76 32.66 11.13 33.53Q11.50 34.41 12.56 34.68Q13.62 34.96 15.69 35.01L15.69 35.01L15.69 36.02Q14.26 35.97 12.01 35.93Q9.75 35.88 7.27 35.88L7.27 35.88Q5.29 35.88 3.40 35.93Q1.52 35.97 0 36.02L0 36.02L0 35.10Q1.47 35.01 2.21 34.73Q2.94 34.45 3.20 33.63Q3.45 32.80 3.45 31.14L3.45 31.14L3.45 8.33Q3.45 6.62 3.20 5.82Q2.94 5.01 2.19 4.71Q1.43 4.42 0 4.37L0 4.37ZM35.37 36.34L35.37 36.34Q33.30 36.34 31.92 35.56Q30.54 34.78 29.90 33.47Q29.26 32.15 29.26 30.59L29.26 30.59Q29.26 28.61 30.15 27.37Q31.05 26.13 32.48 25.35Q33.90 24.56 35.49 24.06Q37.08 23.55 38.52 23.07Q39.97 22.59 40.87 21.92Q41.77 21.25 41.77 20.19L41.77 20.19L41.77 16.61Q41.77 15.41 41.38 14.47Q40.99 13.52 40.18 13.02Q39.38 12.51 38.09 12.51L38.09 12.51Q37.17 12.51 36.25 12.77Q35.33 13.02 34.73 13.62L34.73 13.62Q36.02 14.08 36.73 15.02Q37.44 15.96 37.44 17.16L37.44 17.16Q37.44 18.72 36.36 19.64Q35.28 20.56 33.81 20.56L33.81 20.56Q32.15 20.56 31.30 19.53Q30.45 18.49 30.45 17.02L30.45 17.02Q30.45 15.69 31.12 14.81Q31.79 13.94 32.98 13.16L32.98 13.16Q34.27 12.42 36.09 12.01Q37.90 11.59 40.02 11.59L40.02 11.59Q42.14 11.59 43.84 12.03Q45.54 12.47 46.69 13.62L46.69 13.62Q47.75 14.67 48.07 16.21Q48.39 17.76 48.39 20.10L48.39 20.10L48.39 32.61Q48.39 33.76 48.62 34.20Q48.85 34.64 49.40 34.64L49.40 34.64Q49.82 34.64 50.21 34.41Q50.60 34.18 51.06 33.86L51.06 33.86L51.52 34.64Q50.55 35.47 49.29 35.90Q48.02 36.34 46.46 36.34L46.46 36.34Q44.76 36.34 43.75 35.86Q42.73 35.37 42.30 34.55Q41.86 33.72 41.86 32.61L41.86 32.61Q40.76 34.36 39.19 35.35Q37.63 36.34 35.37 36.34ZM38.64 33.40L38.64 33.40Q39.56 33.40 40.32 32.96Q41.08 32.52 41.77 31.51L41.77 31.51L41.77 22.08Q41.35 22.77 40.62 23.32Q39.88 23.87 39.05 24.45Q38.23 25.02 37.47 25.71Q36.71 26.40 36.25 27.42Q35.79 28.43 35.79 29.85L35.79 29.85Q35.79 31.65 36.57 32.52Q37.35 33.40 38.64 33.40ZM68.68 11.59L68.68 11.59Q70.15 11.59 71.07 12.21Q71.99 12.83 72.43 13.80Q72.86 14.77 72.86 15.82L72.86 15.82Q72.86 17.53 71.88 18.61Q70.89 19.69 69.28 19.69L69.28 19.69Q67.67 19.69 66.77 18.88Q65.87 18.08 65.87 16.74L65.87 16.74Q65.87 15.46 66.45 14.61Q67.02 13.75 67.90 13.16L67.90 13.16Q67.25 12.97 66.61 13.20L66.61 13.20Q65.73 13.34 64.95 13.92Q64.17 14.49 63.62 15.34Q63.07 16.19 62.74 17.18Q62.42 18.17 62.42 19.09L62.42 19.09L62.42 31.28Q62.42 33.49 63.50 34.27Q64.58 35.05 66.75 35.05L66.75 35.05L66.75 36.02Q65.69 35.97 63.66 35.90Q61.64 35.83 59.43 35.83L59.43 35.83Q57.59 35.83 55.71 35.90Q53.82 35.97 52.85 36.02L52.85 36.02L52.85 35.05Q54.46 35.05 55.13 34.36Q55.80 33.67 55.80 31.74L55.80 31.74L55.80 17.25Q55.80 15.18 55.18 14.19Q54.56 13.20 52.85 13.20L52.85 13.20L52.85 12.24Q54.33 12.37 55.71 12.37L55.71 12.37Q57.64 12.37 59.32 12.21Q61.00 12.05 62.42 11.73L62.42 11.73L62.42 16.01Q62.97 14.77 63.89 13.75Q64.81 12.74 66.01 12.17Q67.21 11.59 68.68 11.59ZM80.68 36.34L80.68 36.34Q78.61 36.34 77.23 35.56Q75.85 34.78 75.21 33.47Q74.57 32.15 74.57 30.59L74.57 30.59Q74.57 28.61 75.46 27.37Q76.36 26.13 77.79 25.35Q79.21 24.56 80.80 24.06Q82.39 23.55 83.83 23.07Q85.28 22.59 86.18 21.92Q87.08 21.25 87.08 20.19L87.08 20.19L87.08 16.61Q87.08 15.41 86.69 14.47Q86.30 13.52 85.49 13.02Q84.69 12.51 83.40 12.51L83.40 12.51Q82.48 12.51 81.56 12.77Q80.64 13.02 80.04 13.62L80.04 13.62Q81.33 14.08 82.04 15.02Q82.75 15.96 82.75 17.16L82.75 17.16Q82.75 18.72 81.67 19.64Q80.59 20.56 79.12 20.56L79.12 20.56Q77.46 20.56 76.61 19.53Q75.76 18.49 75.76 17.02L75.76 17.02Q75.76 15.69 76.43 14.81Q77.10 13.94 78.29 13.16L78.29 13.16Q79.58 12.42 81.40 12.01Q83.21 11.59 85.33 11.59L85.33 11.59Q87.45 11.59 89.15 12.03Q90.85 12.47 92 13.62L92 13.62Q93.06 14.67 93.38 16.21Q93.70 17.76 93.70 20.10L93.70 20.10L93.70 32.61Q93.70 33.76 93.93 34.20Q94.16 34.64 94.71 34.64L94.71 34.64Q95.13 34.64 95.52 34.41Q95.91 34.18 96.37 33.86L96.37 33.86L96.83 34.64Q95.86 35.47 94.60 35.90Q93.33 36.34 91.77 36.34L91.77 36.34Q90.07 36.34 89.06 35.86Q88.04 35.37 87.61 34.55Q87.17 33.72 87.17 32.61L87.17 32.61Q86.07 34.36 84.50 35.35Q82.94 36.34 80.68 36.34ZM83.95 33.40L83.95 33.40Q84.87 33.40 85.63 32.96Q86.39 32.52 87.08 31.51L87.08 31.51L87.08 22.08Q86.66 22.77 85.93 23.32Q85.19 23.87 84.36 24.45Q83.54 25.02 82.78 25.71Q82.02 26.40 81.56 27.42Q81.10 28.43 81.10 29.85L81.10 29.85Q81.10 31.65 81.88 32.52Q82.66 33.40 83.95 33.40ZM120.80 0L120.80 0L120.80 30.96Q120.80 33.03 121.44 34.02Q122.08 35.01 123.74 35.01L123.74 35.01L123.74 35.97Q122.31 35.83 120.89 35.83L120.89 35.83Q118.96 35.83 117.28 35.97Q115.60 36.11 114.17 36.48L114.17 36.48L114.17 5.52Q114.17 3.45 113.55 2.46Q112.93 1.47 111.23 1.47L111.23 1.47L111.23 0.51Q112.70 0.64 114.08 0.64L114.08 0.64Q115.97 0.64 117.67 0.48Q119.37 0.32 120.80 0ZM109.07 11.59L109.07 11.59Q111.09 11.59 112.63 12.26Q114.17 12.93 115.05 14.49L115.05 14.49L114.49 15.00Q113.90 13.89 112.91 13.41Q111.92 12.93 110.81 12.93L110.81 12.93Q108.47 12.93 107.09 15.66Q105.71 18.40 105.75 24.10L105.75 24.10Q105.75 28.01 106.28 30.34Q106.81 32.66 107.80 33.67Q108.79 34.68 110.08 34.68L110.08 34.68Q111.64 34.68 112.88 33.44Q114.13 32.20 114.22 30.08L114.22 30.08L114.45 31.69Q113.76 34.13 112.22 35.40Q110.68 36.66 108.19 36.66L108.19 36.66Q105.48 36.66 103.34 35.33Q101.20 33.99 100.00 31.21Q98.81 28.43 98.81 24.01L98.81 24.01Q98.81 19.83 100.14 17.09Q101.48 14.35 103.80 12.97Q106.12 11.59 109.07 11.59ZM131.65 0.37L131.65 0.37Q133.58 0.37 134.71 1.31Q135.84 2.25 135.84 3.91L135.84 3.91Q135.84 5.57 134.71 6.51Q133.58 7.45 131.65 7.45L131.65 7.45Q129.72 7.45 128.59 6.51Q127.47 5.57 127.47 3.91L127.47 3.91Q127.47 2.25 128.59 1.31Q129.72 0.37 131.65 0.37ZM135.24 11.73L135.24 11.73L135.24 31.74Q135.24 33.67 135.91 34.36Q136.57 35.05 138.18 35.05L138.18 35.05L138.18 36.02Q137.36 35.97 135.61 35.90Q133.86 35.83 132.07 35.83L132.07 35.83Q130.27 35.83 128.43 35.90Q126.59 35.97 125.67 36.02L125.67 36.02L125.67 35.05Q127.28 35.05 127.95 34.36Q128.62 33.67 128.62 31.74L128.62 31.74L128.62 17.25Q128.62 15.18 128.00 14.19Q127.37 13.20 125.67 13.20L125.67 13.20L125.67 12.24Q127.14 12.37 128.52 12.37L128.52 12.37Q130.46 12.37 132.13 12.21Q133.81 12.05 135.24 11.73ZM149.09 44.67L149.09 44.67Q146.23 44.67 144.00 44.18Q141.77 43.70 140.51 42.71Q139.24 41.72 139.24 40.30L139.24 40.30Q139.24 38.87 140.53 37.74Q141.82 36.62 144.35 35.97L144.35 35.97L144.76 36.71Q143.89 37.40 143.50 38.20Q143.11 39.01 143.11 39.88L143.11 39.88Q143.11 41.81 144.88 42.85Q146.65 43.88 149.68 43.88L149.68 43.88Q151.75 43.88 153.39 43.33Q155.02 42.78 155.96 41.68Q156.91 40.57 156.91 38.96L156.91 38.96Q156.91 37.58 155.89 36.64Q154.88 35.70 151.85 35.70L151.85 35.70L148.99 35.70Q147.11 35.70 145.70 35.28Q144.30 34.87 143.52 33.97Q142.74 33.07 142.74 31.69L142.74 31.69Q142.74 29.76 144.26 28.29Q145.77 26.82 148.76 25.53L148.76 25.53L149.22 25.90Q148.35 26.45 147.59 27.07Q146.83 27.69 146.83 28.66L146.83 28.66Q146.83 30.13 148.67 30.13L148.67 30.13L153.69 30.13Q156.22 30.13 158.22 30.73Q160.22 31.33 161.39 32.68Q162.56 34.04 162.56 36.20L162.56 36.20Q162.56 38.46 161.11 40.39Q159.67 42.32 156.68 43.49Q153.69 44.67 149.09 44.67ZM149.55 26.22L149.55 26.22Q146.92 26.22 144.85 25.44Q142.78 24.66 141.59 23.05Q140.39 21.44 140.39 18.91L140.39 18.91Q140.39 16.38 141.59 14.74Q142.78 13.11 144.85 12.35Q146.92 11.59 149.55 11.59L149.55 11.59Q152.17 11.59 154.24 12.35Q156.31 13.11 157.50 14.74Q158.70 16.38 158.70 18.91L158.70 18.91Q158.70 21.44 157.50 23.05Q156.31 24.66 154.24 25.44Q152.17 26.22 149.55 26.22ZM149.55 25.39L149.55 25.39Q150.79 25.39 151.48 23.99Q152.17 22.59 152.17 18.91L152.17 18.91Q152.17 15.23 151.48 13.82Q150.79 12.42 149.55 12.42L149.55 12.42Q148.35 12.42 147.64 13.82Q146.92 15.23 146.92 18.91L146.92 18.91Q146.92 22.59 147.64 23.99Q148.35 25.39 149.55 25.39ZM156.72 15.55L156.72 15.55L155.80 15.23Q156.49 13.43 158.03 12.24Q159.57 11.04 161.37 11.04L161.37 11.04Q162.84 11.04 163.60 11.85Q164.36 12.65 164.36 13.94L164.36 13.94Q164.36 15.32 163.62 15.98Q162.89 16.65 161.97 16.65L161.97 16.65Q161.18 16.65 160.52 16.10Q159.85 15.55 159.76 14.42Q159.67 13.29 160.54 11.50L160.54 11.50L160.86 11.78Q159.11 12.42 158.24 13.27Q157.37 14.12 156.72 15.55ZM182.30 11.59L182.30 11.59Q184.23 11.59 185.43 12.08Q186.62 12.56 187.36 13.39L187.36 13.39Q188.09 14.26 188.42 15.66Q188.74 17.07 188.74 19.37L188.74 19.37L188.74 31.74Q188.74 33.67 189.34 34.36Q189.93 35.05 191.41 35.05L191.41 35.05L191.41 36.02Q190.58 35.97 188.90 35.90Q187.22 35.83 185.61 35.83L185.61 35.83Q183.95 35.83 182.34 35.90Q180.73 35.97 179.91 36.02L179.91 36.02L179.91 35.05Q181.15 35.05 181.63 34.36Q182.11 33.67 182.11 31.74L182.11 31.74L182.11 17.43Q182.11 16.28 181.93 15.43Q181.75 14.58 181.22 14.10Q180.69 13.62 179.63 13.62L179.63 13.62Q178.43 13.62 177.42 14.31Q176.41 15.00 175.79 16.21Q175.17 17.43 175.17 18.95L175.17 18.95L175.17 31.74Q175.17 33.67 175.67 34.36Q176.18 35.05 177.38 35.05L177.38 35.05L177.38 36.02Q176.64 35.97 175.10 35.90Q173.56 35.83 171.95 35.83L171.95 35.83Q170.20 35.83 168.36 35.90Q166.52 35.97 165.60 36.02L165.60 36.02L165.60 35.05Q167.21 35.05 167.88 34.36Q168.54 33.67 168.54 31.74L168.54 31.74L168.54 17.25Q168.54 15.18 167.92 14.19Q167.30 13.20 165.60 13.20L165.60 13.20L165.60 12.24Q167.07 12.37 168.45 12.37L168.45 12.37Q170.38 12.37 172.06 12.21Q173.74 12.05 175.17 11.73L175.17 11.73L175.17 15.87Q176.27 13.57 178.16 12.58Q180.04 11.59 182.30 11.59ZM196.14 11.59L196.14 11.59Q198.08 11.59 199.27 12.08Q200.47 12.56 201.20 13.39L201.20 13.39Q201.94 14.26 202.26 15.66Q202.58 17.07 202.58 19.37L202.58 19.37L202.58 31.74Q202.58 33.67 203.25 34.36Q203.92 35.05 205.53 35.05L205.53 35.05L205.53 36.02Q204.65 35.97 202.91 35.90Q201.16 35.83 199.46 35.83L199.46 35.83Q197.80 35.83 196.19 35.90Q194.58 35.97 193.75 36.02L193.75 36.02L193.75 35.05Q194.99 35.05 195.48 34.36Q195.96 33.67 195.96 31.74L195.96 31.74L195.96 17.43Q195.96 16.28 195.75 15.43Q195.55 14.58 194.97 14.10Q194.40 13.62 193.20 13.62L193.20 13.62Q192.00 13.62 190.99 14.35Q189.98 15.09 189.36 16.33Q188.74 17.57 188.69 19.09L188.69 19.09L188.46 16.28Q189.70 13.52 191.75 12.56Q193.80 11.59 196.14 11.59ZM219.19 2.85L219.19 2.85Q221.90 2.85 223.38 3.43Q224.85 4.00 225.91 4.65L225.91 4.65Q226.46 4.97 226.80 5.13Q227.15 5.29 227.47 5.29L227.47 5.29Q227.93 5.29 228.14 4.78Q228.34 4.28 228.48 3.27L228.48 3.27L229.54 3.27Q229.49 4.14 229.42 5.36Q229.36 6.58 229.33 8.56Q229.31 10.53 229.31 13.75L229.31 13.75L228.25 13.75Q228.07 11.36 227.15 9.11Q226.23 6.85 224.55 5.41Q222.87 3.96 220.43 3.96L220.43 3.96Q218.22 3.96 216.80 5.20Q215.37 6.44 215.37 8.65L215.37 8.65Q215.37 10.49 216.29 11.80Q217.21 13.11 218.98 14.35Q220.75 15.59 223.28 17.34L223.28 17.34Q225.49 18.77 227.24 20.19Q228.99 21.62 230.05 23.41Q231.10 25.21 231.10 27.69L231.10 27.69Q231.10 30.73 229.52 32.71Q227.93 34.68 225.35 35.67Q222.78 36.66 219.70 36.66L219.70 36.66Q216.84 36.66 215.14 36.11Q213.44 35.56 212.29 34.96L212.29 34.96Q211.28 34.32 210.73 34.32L210.73 34.32Q210.27 34.32 210.06 34.82Q209.85 35.33 209.71 36.34L209.71 36.34L208.66 36.34Q208.75 35.24 208.77 33.76Q208.79 32.29 208.82 29.92Q208.84 27.55 208.84 23.92L208.84 23.92L209.90 23.92Q210.08 26.96 210.93 29.60Q211.78 32.25 213.55 33.86Q215.33 35.47 218.27 35.47L218.27 35.47Q219.88 35.47 221.14 34.89Q222.41 34.32 223.19 33.17Q223.97 32.02 223.97 30.31L223.97 30.31Q223.97 28.38 223.08 26.96Q222.18 25.53 220.64 24.29Q219.10 23.05 217.07 21.76L217.07 21.76Q214.91 20.33 213.03 18.91Q211.14 17.48 210.01 15.64Q208.89 13.80 208.89 11.27L208.89 11.27Q208.89 8.37 210.33 6.51Q211.78 4.65 214.15 3.75Q216.52 2.85 219.19 2.85ZM259.16 3.45L259.16 3.45Q258.98 5.47 258.91 7.36Q258.84 9.25 258.84 10.26L258.84 10.26Q258.84 11.18 258.89 12.01Q258.93 12.83 258.98 13.39L258.98 13.39L257.92 13.39Q257.46 10.03 256.50 8.07Q255.53 6.12 253.99 5.31Q252.45 4.51 250.38 4.51L250.38 4.51L248.49 4.51Q247.16 4.51 246.47 4.74Q245.78 4.97 245.55 5.66Q245.32 6.35 245.32 7.77L245.32 7.77L245.32 31.69Q245.32 33.12 245.55 33.81Q245.78 34.50 246.47 34.73Q247.16 34.96 248.49 34.96L248.49 34.96L250.75 34.96Q252.82 34.96 254.40 34.06Q255.99 33.17 257.12 31.00Q258.24 28.84 258.84 25.16L258.84 25.16L259.90 25.16Q259.76 26.63 259.76 29.03L259.76 29.03Q259.76 30.08 259.81 32.02Q259.85 33.95 260.08 36.02L260.08 36.02Q257.74 35.93 254.79 35.90Q251.85 35.88 249.55 35.88L249.55 35.88Q248.40 35.88 246.61 35.88Q244.81 35.88 242.74 35.90Q240.67 35.93 238.56 35.95Q236.44 35.97 234.55 36.02L234.55 36.02L234.55 35.10Q236.03 35.01 236.76 34.73Q237.50 34.45 237.75 33.63Q238.00 32.80 238.00 31.14L238.00 31.14L238.00 8.33Q238.00 6.62 237.75 5.82Q237.50 5.01 236.74 4.71Q235.98 4.42 234.55 4.37L234.55 4.37L234.55 3.45Q236.44 3.50 238.56 3.52Q240.67 3.54 242.74 3.56Q244.81 3.59 246.61 3.59Q248.40 3.59 249.55 3.59L249.55 3.59Q251.67 3.59 254.36 3.56Q257.05 3.54 259.16 3.45ZM243.94 19.18L251.99 19.18Q251.99 19.18 251.99 19.64Q251.99 20.10 251.99 20.10L251.99 20.10L243.94 20.10Q243.94 20.10 243.94 19.64Q243.94 19.18 243.94 19.18L243.94 19.18ZM252.26 13.11L253.32 13.11Q253.14 15.73 253.16 17.11Q253.18 18.49 253.18 19.64L253.18 19.64Q253.18 20.79 253.23 22.17Q253.28 23.55 253.46 26.17L253.46 26.17L252.40 26.17Q252.17 24.56 251.55 23.18Q250.93 21.80 249.78 20.95Q248.63 20.10 246.79 20.10L246.79 20.10L246.79 19.18Q248.17 19.18 249.14 18.61Q250.10 18.03 250.72 17.09Q251.34 16.15 251.71 15.09Q252.08 14.03 252.26 13.11L252.26 13.11ZM280.42 2.81L280.42 2.81Q285.29 2.81 288.95 4.78Q292.61 6.76 294.63 10.46Q296.65 14.17 296.65 19.46L296.65 19.46Q296.65 24.61 294.58 28.47Q292.51 32.34 288.81 34.50Q285.11 36.66 280.37 36.66L280.37 36.66Q275.49 36.66 271.84 34.68Q268.18 32.71 266.16 28.98Q264.13 25.25 264.13 20.01L264.13 20.01Q264.13 14.86 266.23 10.99Q268.32 7.13 271.98 4.97Q275.63 2.81 280.42 2.81ZM280.23 3.63L280.23 3.63Q277.66 3.63 275.75 5.70Q273.84 7.77 272.80 11.41Q271.77 15.04 271.77 19.83L271.77 19.83Q271.77 24.70 272.94 28.31Q274.11 31.92 276.12 33.88Q278.12 35.83 280.55 35.83L280.55 35.83Q283.13 35.83 285.04 33.76Q286.95 31.69 287.98 28.04Q289.02 24.38 289.02 19.64L289.02 19.64Q289.02 14.72 287.84 11.13Q286.67 7.54 284.67 5.59Q282.67 3.63 280.23 3.63Z"></path></g></svg><!----></svg>